<svg version="1.1" id="Layer_1" xmlns="http://www.w3.org/2000/svg" x="0" y="0" viewBox="0 0 240 234" xml:space="preserve"><style>.st1{fill:#54b0ff}</style><path id="XMLID_14_" fill-rule="evenodd" clip-rule="evenodd" fill="#001934" d="M10 10h220v214H10z"/><path id="XMLID_1_" class="st1" d="M10 10h220v214H10V10zM0 234h240V0H0v234z"/><g id="XMLID_21_"><path id="XMLID_36_" class="st1" d="M61.2 59.2c0-.6.2-1.1 1-1.1 6.3-.3 15.5-.5 25.1-.5 27 0 38.8 14.8 38.8 33.8 0 24.8-17.9 35.4-39.9 35.4-3.7 0-5-.2-7.6-.2v37.5c0 .8-.3 1.1-1.1 1.1H62.4c-.8 0-1.1-.3-1.1-1.1V59.2zM78.6 111c2.3.2 4 .2 7.9.2 11.4 0 22.1-4 22.1-19.5C108.6 79.3 101 73 88 73c-3.9 0-7.6.2-9.3.3V111z"/><path id="XMLID_34_" class="st1" d="M136.6 104.1c-.6 0-.8-.3-.8-1.1V89.7c0-.8.2-1 .8-1h9v-5c0-6 1-11.1 3.2-15.5 4-8.2 10.9-11.9 20.6-11.9 2.9 0 5 .2 6.6.8.8.3 1 .6 1 1.4v12.9c0 .8-.3 1.1-1.1 1-1.3-.3-3.1-.5-4.3-.5-5.6 0-8.4 4-8.4 11.8v5h12.7c.8 0 1 .2 1 .8v13.4c0 .8-.2 1-1 1.1h-12.7v60.1c0 .6-.2 1.1-1.1 1.1h-15.3c-.8 0-1.1-.5-1.1-1.1V104h-9.1z"/></g></svg>