<svg xmlns="http://www.w3.org/2000/svg" viewBox="0 0 886.747 494.053">
  <path d="M866.69 338.045l-.189-7.54c-.061-2.482-.149-4.938-.176-7.381l.366.365c-5.886.068-11.771.211-17.655.218l-17.653.084.665-.667-.072 14.921-.593-.596c2.909.024 5.81.011 8.728.075l8.772.148zm0 0l-17.5.371-8.882.15c-2.967.062-5.95.049-8.925.073l-.591.005-.004-.599-.072-14.921-.003-.67.67.005 17.653.084c5.884.006 11.77.149 17.655.218l.366.004-.004.359c-.025 2.533-.113 5.05-.174 7.54l-.188 7.381" fill="#e7e8e5"/>
  <path d="M846.995 356.857l-.19-7.537c-.06-2.485-.15-4.94-.174-7.381l.364.362c-5.886.07-11.77.212-17.654.219l-17.653.084.665-.665-.072 14.918-.593-.593c2.908.023 5.81.01 8.727.072l8.772.15zm0 0l-17.5.372-8.882.15c-2.968.062-5.95.049-8.925.073l-.593.004-.003-.599-.07-14.918-.003-.67.669.003 17.653.084c5.884.007 11.768.15 17.654.217l.366.006-.002.36c-.026 2.53-.115 5.048-.175 7.537l-.19 7.381" fill="#e7e8e5"/>
  <path d="M886.385 356.857l-.189-7.537c-.059-2.485-.15-4.94-.173-7.381l.362.362c-5.884.07-11.769.212-17.653.219l-17.653.084.665-.665-.072 14.918-.593-.593c2.908.023 5.81.01 8.726.072l8.774.15zm0 0l-17.5.372-8.881.15c-2.968.062-5.95.049-8.925.073l-.592.004-.003-.599-.07-14.918-.005-.67.67.003 17.653.084c5.884.007 11.77.15 17.653.217l.367.006-.001.36c-.027 2.53-.115 5.048-.175 7.537l-.19 7.381" fill="#e7e8e5"/>
  <path d="M363.25 160.501l-.189-7.538c-.061-2.484-.149-4.939-.174-7.38l.364.362c-5.886.068-11.77.212-17.655.219l-17.652.084.665-.665-.072 14.918-.593-.594c2.908.024 5.81.01 8.727.073l8.772.15zm0 0l-17.5.372-8.88.15c-2.969.062-5.951.049-8.926.073l-.592.004-.003-.599-.072-14.918-.002-.67.669.003 17.652.084c5.885.007 11.77.15 17.655.219l.366.004-.002.36c-.026 2.53-.115 5.048-.175 7.537l-.19 7.381" fill="#e7e8e5"/>
  <path d="M343.555 179.315l-.19-7.539c-.06-2.484-.149-4.94-.174-7.381l.364.364c-5.886.068-11.77.212-17.654.218l-17.653.083.665-.665-.072 14.92-.593-.595c2.908.024 5.81.01 8.727.073l8.773.15zm0 0l-17.5.372-8.882.148c-2.966.064-5.95.05-8.925.074l-.592.004-.003-.598-.072-14.92-.002-.67.669.004 17.653.083c5.884.007 11.768.15 17.654.219l.366.004-.002.36c-.026 2.532-.115 5.049-.175 7.538l-.19 7.382" fill="#e7e8e5"/>
  <path d="M382.945 179.315l-.189-7.539c-.06-2.484-.15-4.94-.173-7.381l.362.364c-5.884.068-11.768.212-17.653.218l-17.653.083.666-.665-.072 14.92-.594-.595c2.909.024 5.81.01 8.728.073l8.772.15zm0 0l-17.5.372-8.88.148c-2.968.064-5.95.05-8.926.074l-.591.004-.004-.598-.072-14.92-.003-.67.67.004 17.653.083c5.885.007 11.77.15 17.653.219l.368.004-.004.36c-.024 2.532-.114 5.049-.173 7.538l-.19 7.382" fill="#e7e8e5"/>
  <path d="M75.368 259.221l-.19-7.538c-.06-2.484-.15-4.94-.174-7.382l.364.364c-5.885.068-11.77.212-17.654.219l-17.654.084.667-.667-.072 14.92-.595-.594c2.91.024 5.81.01 8.727.073l8.773.15zm0 0l-17.5.372-8.881.148c-2.968.064-5.951.051-8.927.075l-.59.004-.004-.599-.071-14.92-.004-.669.67.004 17.653.084c5.884.005 11.769.15 17.654.217l.367.004-.003.36c-.026 2.532-.115 5.05-.175 7.539l-.19 7.381" fill="#e7e8e5"/>
  <path d="M660.677 160.49l-.19-7.538c-.06-2.483-.15-4.939-.175-7.381l.365.364c-5.885.068-11.769.212-17.653.218l-17.655.084.666-.666-.071 14.92-.595-.595c2.91.024 5.811.01 8.727.075l8.772.148zm0 0l-17.5.373-8.881.149c-2.968.063-5.95.05-8.927.073l-.592.004-.002-.598-.072-14.92-.003-.67.67.004 17.654.084c5.884.007 11.768.15 17.653.218l.367.005-.004.359c-.024 2.532-.115 5.049-.175 7.538l-.188 7.382" fill="#e7e8e5"/>
  <path d="M864.648 15.584l-.19-7.537c-.06-2.484-.15-4.94-.174-7.382l.364.364c-5.885.068-11.77.211-17.653.219l-17.654.083.666-.666-.072 14.919-.594-.593c2.91.022 5.81.01 8.727.073l8.773.15zm0 0l-17.5.372-8.881.15c-2.967.062-5.951.05-8.926.073l-.592.005-.002-.6-.072-14.919-.003-.669.67.003 17.653.084c5.884.006 11.768.15 17.653.218l.368.004-.004.36c-.025 2.531-.115 5.05-.175 7.538l-.189 7.381" fill="#e7e8e5"/>
  <path d="M884.344 34.397l-.19-7.537c-.06-2.484-.149-4.94-.174-7.381l.364.362c-5.884.07-11.77.212-17.653.219l-17.655.084.665-.665-.07 14.918-.595-.594c2.91.024 5.81.01 8.728.074l8.772.15zm0 0l-17.5.372-8.881.15c-2.968.062-5.951.05-8.927.073l-.59.004-.005-.599-.072-14.918-.002-.67.669.004 17.655.083c5.884.007 11.769.15 17.653.217l.367.006-.004.36c-.024 2.53-.114 5.048-.175 7.537l-.188 7.381" fill="#e7e8e5"/>
  <path d="M35.977 15.601l-.19-7.538c-.06-2.484-.15-4.94-.174-7.382l.364.364c-5.885.068-11.77.211-17.654.218L.669 1.347 1.334.68l-.071 14.92-.594-.594c2.91.022 5.81.01 8.727.073l8.773.15zm0 0l-17.5.371-8.882.15c-2.967.062-5.95.05-8.926.074l-.591.004-.003-.599L.003.681 0 .012l.67.003 17.653.084c5.884.006 11.769.149 17.654.218l.367.004-.003.36c-.025 2.532-.115 5.048-.175 7.539l-.19 7.381" fill="#e7e8e5"/>
  <path d="M234.608 109.876H76.559V3.371h158.049v106.505" fill="#fff"/>
  <path d="M234.608 109.876v-.667H77.226V4.037h156.715v105.839h.667v-.667.667h.667V2.704H75.893v107.839h159.382v-.667h-.667" fill="#e7e8e5"/>
  <path d="M91.831 11.43a3.64 3.64 0 11-7.28-.001 3.64 3.64 0 017.28 0" fill="#273e47"/>
  <path d="M106.694 11.43a3.64 3.64 0 11-7.28-.001 3.64 3.64 0 017.28 0" fill="#e7e8e5"/>
  <path d="M121.557 11.43a3.64 3.64 0 11-7.282-.002 3.64 3.64 0 017.282.001" fill="#fabb1e"/>
  <path d="M76.56 20.081h158.047v-1.333H76.56z" fill="#e7e8e5"/>
  <path d="M210.199 143.856c0-1.664.221-6.105.221-7.993 0-8.104-2.887-11.771-10.436-11.992-3.553-.222-5.663-2.331-5.663-5.328 0-2.999 2.11-5.108 5.663-5.33 7.55-.333 10.436-3.886 10.436-12.102 0-1.888-.221-6.33-.221-7.995 0-10.77 4.552-17.653 21.761-21.428 3.441-.777 6.105 1.333 6.105 4.552 0 2.665-1.776 4.108-3.108 4.552-10.768 3.33-12.324 6.773-12.324 14.323 0 2.221.223 5.884.223 8.217 0 8.66-4.219 12.879-11.55 15.21 7.442 2.442 11.55 6.55 11.55 15.21 0 2.332-.223 5.996-.223 8.217 0 7.55 1.556 10.992 12.324 14.323 1.332.444 3.108 1.887 3.108 4.552 0 3.221-2.664 5.33-6.105 4.553-17.21-3.776-21.761-10.66-21.761-21.541" fill="#e7e8e5"/>
  <path d="M275.26 93.116c0 1.665-.221 6.107-.221 7.995 0 8.216 2.997 11.769 10.549 12.102 3.441.222 5.55 2.331 5.55 5.33 0 2.997-2.109 5.106-5.55 5.328-7.552.221-10.55 3.888-10.55 11.992 0 1.888.222 6.329.222 7.993 0 10.881-4.55 17.765-21.761 21.541-3.44.776-6.106-1.332-6.106-4.553 0-2.665 1.776-4.108 3.219-4.552 10.661-3.33 12.215-6.773 12.215-14.323 0-2.221-.222-5.885-.222-8.217 0-8.66 4.219-12.879 11.547-15.21-7.44-2.442-11.547-6.55-11.547-15.21 0-2.333.222-5.996.222-8.217 0-7.55-1.554-10.992-12.215-14.323-1.443-.444-3.219-1.887-3.219-4.552 0-3.219 2.666-5.33 6.106-4.552 17.21 3.775 21.761 10.659 21.761 21.428" fill="#e7e8e5"/>
  <path d="M359.793 347.877c1.792 1.866 1.792 4.664 0 6.459-.934.861-2.01 1.292-3.157 1.292-1.22 0-2.37-.43-3.303-1.292l-20.165-20.452c-.215-.073-.287-.216-.36-.432l-.215-.144c-.142-.215-.142-.359-.214-.573-.143-.071-.216-.216-.216-.288-.071-.143-.071-.359-.142-.431 0-.215-.144-.287-.144-.359v-.501c0-.144-.072-.215-.072-.432l.072-.357v-.503c0-.143.144-.215.144-.288.071-.215.071-.357.142-.573l.073-.143c.143-.216.215-.503.357-.647 0 0 0-.144.144-.144.071-.142.216-.357.431-.502l20.165-20.452c1.794-1.723 4.736-1.723 6.46 0a4.552 4.552 0 010 6.458l-17.009 17.151 17.01 17.153" fill="#e7e8e5"/>
  <path d="M378.09 350.173l17.582-41.838c.863-2.008 3.16-2.943 5.241-2.08 1.938.789 2.868 3.156 2.008 5.094L385.34 353.26c-.645 1.507-2.152 2.368-3.661 2.368-.43 0-1.003-.07-1.434-.287-2.081-.789-3.016-3.157-2.154-5.168" fill="#e7e8e5"/>
  <path d="M437.653 333.308l-.07.073c-.144.143-.287.358-.502.503l-20.166 20.452c-.86.861-2.082 1.292-3.228 1.292-1.22 0-2.298-.43-3.231-1.292-1.792-1.795-1.792-4.593 0-6.459l17.01-17.153-17.01-17.15a4.552 4.552 0 010-6.46c1.721-1.722 4.665-1.722 6.459 0l20.166 20.453c.215.145.358.36.502.502l.07.144c.144.288.29.431.36.647l.072.143c.072.216.072.358.216.646 0 .072.071.072.071.215v.503l.072.357-.072.36v.573l-.07.144c-.145.287-.145.503-.217.646 0 .072-.072.072-.072.217-.07.141-.216.357-.36.644" fill="#e7e8e5"/>
  <path d="M725.528 110.188c0 9.07-7.019 16.5-15.93 17.159v.048h-97.454c-11.172 0-20.224-9.054-20.224-20.226 0-10.532 8.05-19.192 18.333-20.137.583-18.305 15.604-32.972 34.052-32.972 14.686 0 27.204 9.29 31.988 22.315a19.97 19.97 0 019.043-2.139c10.752 0 19.547 8.384 20.187 18.973.906-.153 1.841-.229 2.797-.229 9.5 0 17.208 7.707 17.208 17.208" fill="#e7e8e5"/>
  <path d="M65.949 205.985c4.059-10.581 16.883-14.452 26.118-7.882 6.287 4.472 8.802 12.841 6.035 20.042-4.063 10.579-16.855 14.44-26.093 7.875-6.288-4.47-8.823-12.832-6.06-20.035zm-4.32 31.067c1.605-.996 3.614-.941 5.23.035a30.479 30.479 0 002.739 1.47c1.701.803 2.854 2.44 2.912 4.322l.2 6.437 20.967-.652-.2-6.48c-.058-1.88.996-3.581 2.647-4.484a28.996 28.996 0 002.6-1.603c1.563-1.081 3.578-1.264 5.253-.365l5.66 3.035 9.918-18.492-5.661-3.036c-1.675-.899-2.637-2.678-2.602-4.578a28.975 28.975 0 00-.102-3.054c-.162-1.874.674-3.692 2.27-4.684l5.508-3.419-11.057-17.825-5.499 3.406a4.9 4.9 0 01-5.135.006c-.462-.282-.935-.551-1.415-.808a28.955 28.955 0 00-1.458-.732 4.917 4.917 0 01-2.846-4.303l-.193-6.443-20.967.651.203 6.42c.058 1.85-.911 3.592-2.539 4.475a29.52 29.52 0 00-2.84 1.76c-1.511 1.058-3.5 1.149-5.126.277l-5.659-3.035-9.917 18.492 5.66 3.035c1.676.9 2.638 2.68 2.6 4.584-.02 1.024.013 2.044.1 3.06.159 1.877-.68 3.699-2.282 4.69l-5.491 3.402 11.057 17.825 5.464-3.389" fill="#e7e8e5"/>
  <path d="M158.044 47.992c0-6.648 5.396-12.044 12.043-12.044 6.648 0 12.032 5.396 12.032 12.044 0 6.647-5.384 12.032-12.032 12.032-6.647 0-12.043-5.385-12.043-12.032zm7.717 22.18c.663-1.147 1.922-1.779 3.244-1.71a20.827 20.827 0 002.172 0c1.318-.067 2.572.562 3.232 1.705l2.255 3.908 12.728-7.346-2.252-3.905c-.661-1.147-.596-2.557.128-3.665.399-.61.765-1.242 1.097-1.894.6-1.174 1.787-1.93 3.106-1.93h4.498V40.636h-4.498c-1.319 0-2.506-.756-3.106-1.93a20.396 20.396 0 00-1.097-1.895c-.724-1.107-.79-2.516-.128-3.663l2.252-3.907-12.728-7.344-2.267 3.923c-.66 1.141-1.912 1.77-3.229 1.701a20.79 20.79 0 00-2.163 0c-1.322.068-2.581-.564-3.242-1.71l-2.252-3.914-12.73 7.344 2.251 3.895c.663 1.147.599 2.556-.124 3.664a20.678 20.678 0 00-1.1 1.903c-.597 1.176-1.785 1.933-3.104 1.933h-4.499v14.699h4.499c1.319 0 2.507.757 3.104 1.933.333.655.701 1.29 1.1 1.904.724 1.108.787 2.517.124 3.663l-2.25 3.894 12.729 7.346 2.25-3.903" fill="#e7e8e5"/>
  <path d="M828.484 73.868c0 6.648-5.385 12.032-12.032 12.032s-12.044-5.384-12.044-12.032 5.397-12.044 12.044-12.044 12.032 5.396 12.032 12.044zm14.05-6.577l-7.343-12.728-3.895 2.25c-1.147.662-2.555.599-3.664-.124-.612-.4-1.248-.766-1.903-1.1-1.177-.597-1.933-1.786-1.933-3.105v-4.499h-14.7v4.499c0 1.319-.756 2.508-1.932 3.105-.656.334-1.292.7-1.904 1.1-1.108.723-2.516.786-3.663.124l-3.896-2.25-7.344 12.728 3.914 2.253c1.146.66 1.778 1.92 1.71 3.241a22.438 22.438 0 000 2.164c.068 1.316-.56 2.57-1.7 3.228l-3.924 2.267 7.344 12.73 3.907-2.254c1.145-.66 2.556-.595 3.664.128.61.399 1.243.765 1.895 1.099 1.174.598 1.929 1.785 1.929 3.104v4.5h14.7v-4.5c0-1.319.755-2.506 1.93-3.104.651-.334 1.285-.7 1.894-1.099 1.108-.723 2.519-.788 3.664-.128l3.907 2.253 7.344-12.729-3.908-2.253c-1.143-.66-1.771-1.916-1.706-3.234a21.06 21.06 0 000-2.172c-.066-1.321.564-2.581 1.712-3.242l3.902-2.252" fill="#e7e8e5"/>
  <path d="M497.23 204.793H795.64V16.523H497.23z" fill="#273e47"/>
  <path d="M795.639 16.523v16.582H497.23V16.523h298.408" fill="#fabb1e"/>
  <path d="M512.799 24.935a4.175 4.175 0 01-8.348 0 4.175 4.175 0 018.348 0" fill="#999b9b"/>
  <path d="M529.84 24.935a4.174 4.174 0 11-8.348-.001 4.174 4.174 0 018.348 0" fill="#e7e8e5"/>
  <path d="M546.883 24.935a4.174 4.174 0 11-8.349 0 4.174 4.174 0 018.349 0" fill="#fff"/>
  <path d="M523.887 69.332h-8.866v-3.239h8.866v3.239" fill="#e7e8e5"/>
  <path d="M673.543 69.332H530.348v-3.239h143.195v3.239" fill="#e7e8e5"/>
  <path d="M695.83 69.332h-16.84v-3.239h16.84v3.239" fill="#fabb1e"/>
  <path d="M722.781 112.668h-16.84v-3.239h16.84v3.239" fill="#e7e8e5"/>
  <path d="M756.267 69.332h-56.775v-3.239h56.775v3.239" fill="#999b9b"/>
  <path d="M532.752 77.999h-8.865V74.76h8.865V78" fill="#e7e8e5"/>
  <path d="M605.733 77.999h-66.741V74.76h66.741V78" fill="#999b9b"/>
  <path d="M701.941 112.668h-25.246v-3.239h25.246v3.239" fill="#999b9b"/>
  <path d="M594.096 104.001h-63.748v-3.238h63.748V104" fill="#999b9b"/>
  <path d="M583.713 86.667h-44.721v-3.239h44.721v3.239" fill="#fabb1e"/>
  <path d="M734.973 95.335h-44.721v-3.239h44.721v3.239" fill="#999b9b"/>
  <path d="M701.587 86.667H588.676v-3.239h112.91v3.239" fill="#999b9b"/>
  <path d="M670.924 112.668H530.348v-3.239h140.576v3.239" fill="#fabb1e"/>
  <path d="M771.477 77.999h-73.862V74.76h73.862V78" fill="#fabb1e"/>
  <path d="M693.953 77.999h-84.03V74.76h84.03V78" fill="#e7e8e5"/>
  <path d="M761.31 86.667h-28.702v-3.239h28.703v3.239" fill="#e7e8e5"/>
  <path d="M532.752 86.667h-8.865v-3.239h8.865v3.239" fill="#e7e8e5"/>
  <path d="M523.887 95.335h-8.866v-3.239h8.866v3.239" fill="#999b9b"/>
  <path d="M582.747 95.335h-52.399v-3.239h52.399v3.239" fill="#e7e8e5"/>
  <path d="M591.39 121.335h-52.398v-3.238h52.397v3.238" fill="#e7e8e5"/>
  <path d="M745.69 130.003h-67.5v-3.239h67.5v3.239" fill="#fabb1e"/>
  <path d="M689.683 121.335H595.64v-3.238h94.042v3.238" fill="#fabb1e"/>
  <path d="M673.608 130.003h-87.233v-3.239h87.233v3.239" fill="#e7e8e5"/>
  <path d="M554.163 130.003h-15.171v-3.239h15.17v3.239" fill="#999b9b"/>
  <path d="M695.83 104.001h-98.127v-3.238h98.128V104" fill="#e7e8e5"/>
  <path d="M763.19 104.001h-63.698v-3.238h63.697V104" fill="#fabb1e"/>
  <path d="M686.132 95.335h-98.06v-3.239h98.06v3.239" fill="#fabb1e"/>
  <path d="M523.887 104.001h-8.866v-3.238h8.866V104" fill="#e7e8e5"/>
  <path d="M523.887 112.668h-8.866v-3.239h8.866v3.239" fill="#e7e8e5"/>
  <path d="M532.752 121.335h-8.865v-3.238h8.865v3.238" fill="#999b9b"/>
  <path d="M532.752 130.003h-8.865v-3.239h8.865v3.239" fill="#e7e8e5"/>
  <path d="M523.887 137.261h-8.866v-3.238h8.866v3.238" fill="#e7e8e5"/>
  <path d="M634.305 137.261H530.348v-3.238h103.957v3.238" fill="#e7e8e5"/>
  <path d="M532.752 145.928h-8.865v-3.237h8.865v3.237" fill="#e7e8e5"/>
  <path d="M605.733 145.928h-66.741v-3.237h66.741v3.237" fill="#999b9b"/>
  <path d="M583.713 154.596h-44.721v-3.239h44.721v3.239" fill="#fabb1e"/>
  <path d="M701.587 154.596H588.676v-3.239h112.91v3.239" fill="#999b9b"/>
  <path d="M771.477 145.928h-73.862v-3.237h73.862v3.237" fill="#fabb1e"/>
  <path d="M693.953 145.928h-84.03v-3.237h84.03v3.237" fill="#e7e8e5"/>
  <path d="M532.752 154.596h-8.865v-3.239h8.865v3.239" fill="#e7e8e5"/>
  <path d="M520.497 57.565a.769.769 0 01-.534 1.315.807.807 0 01-.56-.22l-3.42-3.468-.062-.073-.036-.024-.036-.098-.037-.049-.024-.072-.025-.061v-.086l-.012-.072.012-.061v-.085l.025-.05.024-.097.012-.024.061-.11.026-.023.072-.086 3.42-3.468a.79.79 0 011.094 0 .769.769 0 010 1.095l-2.882 2.91 2.882 2.907" fill="#fabb1e"/>
  <path d="M523.597 57.955l2.982-7.095a.674.674 0 01.888-.353c.329.134.486.536.34.864l-2.982 7.106a.675.675 0 01-.621.403l-.241-.048a.659.659 0 01-.366-.877" fill="#fabb1e"/>
  <path d="M533.695 55.095l-.011.012-.088.085-3.419 3.468a.784.784 0 01-.548.22.766.766 0 01-.545-1.315l2.883-2.908-2.883-2.909a.766.766 0 010-1.095.79.79 0 011.093 0l3.419 3.468.088.086.01.024.062.109.012.024.036.11.01.037v.085l.015.061-.014.06v.098l-.011.024-.036.109-.012.037-.061.11" fill="#fabb1e"/>
  <path d="M389.824 52.81v188.271H91.416V52.811h298.408" fill="#273e47"/>
  <path d="M389.824 52.81v16.583H91.416V52.811h298.408" fill="#fabb1e"/>
  <path d="M106.983 61.223a4.174 4.174 0 11-8.348-.002 4.174 4.174 0 018.348.002" fill="#999b9b"/>
  <path d="M124.025 61.223a4.174 4.174 0 11-8.348-.002 4.174 4.174 0 018.348.002" fill="#e7e8e5"/>
  <path d="M141.068 61.223a4.175 4.175 0 11-8.35-.003 4.175 4.175 0 018.35.003" fill="#fff"/>
  <path d="M118.071 105.62h-8.865v-3.239h8.865v3.239" fill="#e7e8e5"/>
  <path d="M241.061 105.62H124.533v-3.239h116.528v3.239" fill="#e7e8e5"/>
  <path d="M355.064 105.62h-34.928v-3.239h34.928v3.239" fill="#e7e8e5"/>
  <path d="M263.35 105.62h-16.84v-3.239h16.84v3.239" fill="#fabb1e"/>
  <path d="M290.3 148.956h-16.84v-3.237h16.84v3.237" fill="#e7e8e5"/>
  <path d="M315.783 105.62H268.34v-3.239h47.443v3.239" fill="#999b9b"/>
  <path d="M126.937 114.288h-8.866v-3.24h8.866v3.24" fill="#e7e8e5"/>
  <path d="M199.917 114.288h-66.74v-3.24h66.74v3.24" fill="#999b9b"/>
  <path d="M269.46 148.956h-25.245v-3.237h25.245v3.237" fill="#999b9b"/>
  <path d="M188.281 140.29h-63.748v-3.24h63.748v3.24" fill="#999b9b"/>
  <path d="M177.899 122.955h-44.722v-3.239H177.9v3.239" fill="#fabb1e"/>
  <path d="M302.492 131.621h-44.721v-3.237h44.721v3.237" fill="#999b9b"/>
  <path d="M269.107 122.955H182.86v-3.239h86.246v3.239" fill="#999b9b"/>
  <path d="M238.443 148.956h-113.91v-3.237h113.91v3.237" fill="#fabb1e"/>
  <path d="M329.663 114.288h-64.53v-3.24h64.53v3.24" fill="#fabb1e"/>
  <path d="M261.472 114.288h-57.364v-3.24h57.364v3.24" fill="#e7e8e5"/>
  <path d="M295.701 122.955h-19.369v-3.239h19.37v3.239" fill="#e7e8e5"/>
  <path d="M126.937 122.955h-8.866v-3.239h8.866v3.239" fill="#e7e8e5"/>
  <path d="M118.071 131.621h-8.865v-3.237h8.865v3.237" fill="#999b9b"/>
  <path d="M176.93 131.621h-52.397v-3.237h52.398v3.237" fill="#e7e8e5"/>
  <path d="M185.575 157.624h-52.398v-3.239h52.398v3.239" fill="#e7e8e5"/>
  <path d="M279.61 166.29h-58.166v-3.238h58.167v3.239" fill="#fabb1e"/>
  <path d="M257.201 157.624h-67.373v-3.239h67.373v3.239" fill="#fabb1e"/>
  <path d="M216.864 166.29h-60.568v-3.238h60.568v3.239" fill="#e7e8e5"/>
  <path d="M152.876 166.29h-19.699v-3.238h19.699v3.239" fill="#999b9b"/>
  <path d="M300.415 166.29h-15.171v-3.238h15.17v3.239" fill="#999b9b"/>
  <path d="M263.35 140.29h-71.46v-3.24h71.46v3.24" fill="#e7e8e5"/>
  <path d="M321.373 140.29h-54.362v-3.24h54.362v3.24" fill="#fabb1e"/>
  <path d="M253.65 131.621h-71.393v-3.237h71.392v3.237" fill="#fabb1e"/>
  <path d="M118.071 140.29h-8.865v-3.24h8.865v3.24" fill="#e7e8e5"/>
  <path d="M118.071 148.956h-8.865v-3.237h8.865v3.237" fill="#e7e8e5"/>
  <path d="M126.937 157.624h-8.866v-3.239h8.866v3.239" fill="#999b9b"/>
  <path d="M305.33 157.624H262.24v-3.239h43.092v3.239" fill="#999b9b"/>
  <path d="M313.608 173.473h-43.092v-3.238h43.092v3.238" fill="#999b9b"/>
  <path d="M126.937 166.29h-8.866v-3.238h8.866v3.239" fill="#e7e8e5"/>
  <path d="M118.071 173.55h-8.865v-3.24h8.865v3.24" fill="#e7e8e5"/>
  <path d="M228.49 173.55H124.534v-3.24h103.958v3.24" fill="#e7e8e5"/>
  <path d="M354.373 173.55h-33.546v-3.24h33.546v3.24" fill="#e7e8e5"/>
  <path d="M263.35 173.55h-29.313v-3.24h29.312v3.24" fill="#fabb1e"/>
  <path d="M126.937 182.217h-8.866v-3.24h8.866v3.24" fill="#e7e8e5"/>
  <path d="M199.917 182.217h-66.74v-3.24h66.74v3.24" fill="#999b9b"/>
  <path d="M188.281 208.219h-63.748v-3.239h63.748v3.239" fill="#999b9b"/>
  <path d="M177.899 190.884h-44.722v-3.239H177.9v3.239" fill="#fabb1e"/>
  <path d="M269.107 190.884H182.86v-3.239h86.246v3.239" fill="#999b9b"/>
  <path d="M238.443 216.885h-113.91v-3.238h113.91v3.238" fill="#fabb1e"/>
  <path d="M329.663 182.217h-64.53v-3.24h64.53v3.24" fill="#fabb1e"/>
  <path d="M261.472 182.217h-57.364v-3.24h57.364v3.24" fill="#e7e8e5"/>
  <path d="M292.83 190.884h-19.37v-3.239h19.37v3.239" fill="#e7e8e5"/>
  <path d="M126.937 190.884h-8.866v-3.239h8.866v3.239" fill="#e7e8e5"/>
  <path d="M118.071 199.55h-8.865v-3.238h8.865v3.239" fill="#999b9b"/>
  <path d="M176.93 199.55h-52.397v-3.238h52.398v3.239" fill="#e7e8e5"/>
  <path d="M312.215 199.55h-52.398v-3.238h52.398v3.239" fill="#999b9b"/>
  <path d="M290.016 208.219h-98.127v-3.239h98.127v3.239" fill="#e7e8e5"/>
  <path d="M253.65 199.55h-71.393v-3.238h71.392v3.239" fill="#fabb1e"/>
  <path d="M118.071 208.219h-8.865v-3.239h8.865v3.239" fill="#e7e8e5"/>
  <path d="M114.682 93.853a.769.769 0 01-.534 1.315.808.808 0 01-.56-.22l-3.42-3.468-.06-.072-.038-.025-.036-.098-.037-.049-.023-.073-.026-.06v-.086l-.012-.073.012-.06v-.085l.026-.048.023-.099.012-.024.061-.11.026-.023.073-.086 3.419-3.468a.79.79 0 011.094 0 .769.769 0 010 1.095l-2.883 2.908 2.883 2.91" fill="#fabb1e"/>
  <path d="M117.782 94.243l2.982-7.096a.673.673 0 01.887-.351c.33.132.487.535.341.863l-2.981 7.108a.676.676 0 01-.62.401l-.244-.05a.657.657 0 01-.365-.875" fill="#fabb1e"/>
  <path d="M127.88 91.383l-.011.012-.087.085-3.42 3.468a.781.781 0 01-.547.22.769.769 0 01-.546-1.315l2.882-2.909-2.883-2.908a.769.769 0 010-1.095.79.79 0 011.095 0l3.419 3.468.087.086.011.024.062.109.011.024.036.11.012.037v.085l.013.06-.013.061v.098l-.012.025-.036.108-.011.037-.062.11" fill="#fabb1e"/>
  <path d="M865.98 490.753H716.707L746.47 317.62h111.621l7.888 173.134" fill="#d4d6d3"/>
  <path d="M865.98 490.753h-13.088l-7.345-173.134h12.545l7.888 173.134" fill="#999b9b"/>
  <path d="M741.75 351.683c-12.011 47.697-23.88 84.184-37.474 93.116-10.968 7.206-26.367 12.264-42.205 15.806-18.586 4.131-37.842 6.215-51.334 7.335-5.314.445-9.738.72-12.876.943-7.769.496-20.485-50.79-14.984-57.047 1.267-1.426 6.386-2.535 13.563-3.445 24.172-3.032 71.768-3.742 74.605-6.447 2.944-2.832 27.211-36.808 48.018-63.504 14.358-18.448 29.345-13.203 22.686 13.243" fill="#f57a76"/>
  <path d="M613.437 463.708c-.965.445-14.676 6.4-23.094 8.507-6.282 1.572-24.483 5.613-26.902-1.131-1.654-4.597 8.77-8.233 16.084-10.97 3.852-1.44 8.676-5.24 7.648-7.72-1.798-4.337-11.725-.414-18.288 3.082-12.689 6.759-29.716 19.141-37.073 12.56-2.776-2.488.715-6.704 5.744-10.777-8.09 4.665-16.673 8.42-19.868 5.778-1.835-1.505-1.85-3.478-.716-5.69-2.47.704-4.623.469-6.068-1.176-2.472-2.784-1.072-6.708 1.89-10.674-.898-.13-1.691-.617-2.277-1.62-5.137-8.498 22.982-31.32 32.484-33.202 27.96-5.566 57.358-2.076 57.358-2.076 10.565 9.101 13.102 55.09 13.078 55.109" fill="#f57a76"/>
  <path d="M573.635 436.365c-6.566.782-13.146 2.883-18.751 6.434-6.633 4.202-11.996 10.082-18.156 14.884-.165.13.05.392.21.253 2.906-2.495 6.083-4.706 9.09-7.083 2.932-2.32 5.816-4.75 8.905-6.86 5.662-3.866 11.924-6.496 18.72-7.514l-.018-.114" fill="#17282f"/>
  <path d="M568.903 424.413c-7.358 1.723-14.896 3.462-21.784 6.658-7.538 3.498-13.556 9.432-19.467 15.137a320.912 320.912 0 00-10.419 10.514c-.142.149.058.402.21.251a413.448 413.448 0 0118.53-17.143c5.976-5.194 12.571-9.094 20.074-11.64 4.228-1.434 8.556-2.542 12.878-3.646l-.022-.13" fill="#17282f"/>
  <path d="M561.5 413.841c-7.13 1.193-13.352 2.208-19.757 5.77-8.483 4.714-16.806 12.88-19.726 15.776-3.226 3.197-6.342 6.501-9.409 9.852-.125.136.11.357.239.221a235.19 235.19 0 0122.38-20.585c3.766-3.036 7.836-5.65 12.361-7.406 4.475-1.734 9.233-2.634 13.921-3.578l-.009-.05" fill="#17282f"/>
  <path d="M732.947 399.759l-42.858-25.272s18.294-29.552 33.927-43.503c15.632-13.95 21.933-3.005 19.561 17.265-2.373 20.271-10.63 51.51-10.63 51.51" fill="#fabb1e"/>
  <path d="M696.841 368.061c6.867 3.511 25.206 13.6 36.222 21.788l-.171.3c-10.225-5.351-29.775-17.537-36.296-21.66-.123-.077.115-.492.245-.428" fill="#17282f"/>
  <path d="M693.616 376.576l39.324 23.183s8.257-31.232 10.637-51.511c1.522-13.084-.553-22.283-6.432-23.404l-43.529 51.732" fill="#17282f"/>
  <path d="M690.381 490.753H838.32c1.63-2.99-22.616-132.576-72.51-169.064-11.067-8.094-30.705-2.889-36.167 4.983-27.454 39.563-39.262 164.081-39.262 164.081" fill="#fff"/>
  <path d="M765.947 321.69s-19.828 53.035-21.888 78.069c-.603 7.312-6.808 91.347-6.808 91.347h104.43s-20.77-101.877-54.474-149.167c-10.692-15.003-21.26-20.25-21.26-20.25" fill="#fabb1e"/>
  <path d="M734.296 320.91s-17.59 42.582-21.996 66.68c-2.42 13.23-14.679 103.516-14.679 103.516H686.41s11.212-96.653 28.964-140.386c9.511-23.432 18.923-29.81 18.923-29.81" fill="#fabb1e"/>
  <path d="M761.165 410.895a.42.42 0 01-.193-.035c-.904-.517-10.747-7.712-11.23-8.364-.594-.799 2.875-25.012 2.875-25.012l25.219 3.125s-1.423 23.408-1.94 24.314c-.495.864-12.844 5.972-14.73 5.972" fill="#f4ac12"/>
  <path d="M735.453 350.593c8.778 1.603 22.978-12.414 28.303-23.456.361-.758-4.215-30.05-4.517-35.949-.056-1.212-36.534 10.893-36.534 10.893s4.275 12.178 4.742 22.466c.029.86-.478 24.49 8.006 26.046" fill="#f57a76"/>
  <path d="M761.543 309.585c-16.24 14-33.682 10.92-34.467 10.774-1.161-9.132-4.375-18.28-4.375-18.28s36.482-12.107 36.535-10.894c.147 2.774 1.227 10.694 2.307 18.4" fill="#17282f"/>
  <path d="M705.18 242.88s-10.297 7.465-9.623 19.57c.675 12.107 6.224 23.649 7.368 24.003 1.147.356 2.255-43.573 2.255-43.573" fill="#17282f"/>
  <path d="M757.544 246.036c6.17 12.27 5.744 50.841-2.035 60.757-11.277 14.378-32.934 19.279-45.956 4.992-12.622-13.846-11.177-64.105-2.19-73.445 13.237-13.757 41.068-10.427 50.181 7.696" fill="#f57a76"/>
  <path d="M734.77 319.764c7.887-1.576 15.454-6.233 20.74-12.97 1.598-2.038 2.886-5.287 3.87-9.269-.983 3.984-2.27 7.234-3.868 9.274-5.287 6.737-12.853 11.39-20.741 12.965" fill="#0f191d"/>
  <path d="M710.956 313.22a27.52 27.52 0 01-1.404-1.435c-2.941-3.221-5.113-8.412-6.605-14.598 1.496 6.188 3.67 11.378 6.606 14.598.458.502.926.98 1.403 1.435" fill="#a7a9a8"/>
  <path d="M728.93 320.35c-6.447 0-12.787-2.198-17.974-7.13a28.604 28.604 0 01-1.403-1.435c-2.936-3.22-5.11-8.41-6.606-14.598-.848-3.516-1.476-7.354-1.902-11.335 0 0 3.174 7.815 7.72 7.868h.082c4.466 0 5.652-4.281 5.652-4.281l1.893-.627s5.085 4.05 12.685 4.05c2.608 0 5.511-.475 8.608-1.757 12.12-5.026 14.147-19.56 14.147-19.56l9.947.455c.136 9.037-.651 18.441-2.399 25.525-.984 3.982-2.272 7.231-3.87 9.268-5.286 6.738-12.853 11.395-20.74 12.971a29.86 29.86 0 01-5.84.587" fill="#af5652"/>
  <path d="M724.285 275.045l.198.232c-.099 2.598.226 5.588 2.572 6.464l-.023.147c-2.867-.423-3.257-4.397-2.747-6.843" fill="#17282f"/>
  <path d="M726.623 272.347c4.18-.291 4.456 8.092.581 8.361-3.812.265-4.087-8.117-.581-8.361" fill="#17282f"/>
  <path d="M709.956 275.907l-.192.236c.167 2.593-.077 5.592-2.399 6.532l.027.145c2.855-.497 3.139-4.483 2.564-6.913" fill="#17282f"/>
  <path d="M707.548 273.272c-4.187-.18-4.239 8.207-.359 8.373 3.816.164 3.868-8.224.359-8.373" fill="#17282f"/>
  <path d="M729.804 268.404c-1.152-.248-2.17-.672-3.284-1.036-1.256-.412-2.299-.61-3.148-1.696-.455-.583-.31-1.66.213-2.155 1.222-1.154 2.886-1.032 4.418-.598 1.661.47 2.822 1.258 3.812 2.67.96 1.368-.494 3.144-2.011 2.815" fill="#17282f"/>
  <path d="M704.168 269.157c1.155-.228 2.184-.63 3.304-.974 1.263-.388 2.308-.567 3.179-1.635.466-.575.341-1.653-.175-2.159-1.197-1.178-2.863-1.088-4.401-.684-1.672.439-2.848 1.204-3.864 2.598-.986 1.35.432 3.154 1.957 2.854" fill="#17282f"/>
  <path d="M728.168 299.01c-.603.63-1.196 1.487-2.136 1.598-.9.105-1.973-.268-2.812-.561l-.108.136c.707.974 2.145 1.552 3.343 1.302 1.169-.245 1.716-1.28 1.965-2.365.036-.152-.165-.2-.252-.11" fill="#17282f"/>
  <path d="M725.183 291.327c-1.379 2.301-3.476 3.604-5.772 4.126-1.026.243-2.11.314-3.176.251a3.117 3.117 0 01-.61-.05 6.728 6.728 0 01-.572-.069c-.305-.033-.48-.278-.54-.564v-.018l.015-.267v-.019l-.003-.228c-.12-1.997-.026-5.044-.026-5.044-.719.39-4.388 2.187-4.363 1.14.23-8.664.49-18.298 2.55-26.87.054-.287.491-.235.477.05.106 8.336-1.254 16.634-1.28 25.01 1.173-.492 3.085-1.391 4.132-1.406.286.074-.288 5.886-.162 6.779l.019.095c3.375.318 5.873-.779 9.06-3.142.188-.154.399.014.25.226" fill="#17282f"/>
  <path d="M717.38 294.652s1.852 2.335 4.308 3.117c.904.291 1.872.387 2.872.084 2.056-.613 2.045-2.517 1.61-4.132-.353-1.33-1.011-2.462-1.011-2.462s-2.934 2.933-7.779 3.393" fill="#17282f"/>
  <path d="M721.688 297.77c.904.29 1.872.386 2.872.083 2.056-.613 2.045-2.517 1.61-4.132-2.214.3-4.365 1.882-4.482 4.048" fill="#f577b8"/>
  <path d="M761.108 283.103c-4.61 1.421-9.94-12.442-11.45-17.772-1.33-4.7-2.88-19.608-3.105-20.624-.226-1.016-20.09 13.226-31.724 9.848-11.634-3.38-19.421-13.803-19.589-18.672-.168-4.87 14.248-17.258 26.74-17.91 12.492-.653 29.43 15.196 29.43 15.196s-5.757-6.849-5.563-7.412c.194-.564 8.27 2.648 9.765 8.395 0 0-1.608-7.215-.999-7.35.61-.135 6.894 6.037 5.486 10.723 0 0 7.264 6.274 7.948 13.162.682 6.888-1.52 30.744-6.939 32.416" fill="#17282f"/>
  <path d="M706.561 252.139c3.538 1.62 7.083 3.402 10.991 3.913 4.224.55 8.604-.517 12.533-2.03 4.019-1.547 7.668-3.787 10.986-6.526 2.902-2.399 5.478-5.292 8.578-7.43.776-.534 1.679.583 1.203 1.3-4.704 7.08-13.037 13-21.073 15.563-8.456 2.696-16.412.822-23.26-4.698l.042-.092" fill="#17282f"/>
  <path d="M754.775 277.887s6.654-13.414 12.617-11.219c5.961 2.196 2.233 20.747-3.867 24.127-6.101 3.38-9.341-2.206-9.341-2.206l.59-10.702" fill="#f57a76"/>
  <path d="M766.192 271.959l.059.169c-4.256 2.519-6.007 7.081-7.022 11.69 1.095-1.88 2.792-3.075 5.28-1.811.131.066.046.27-.086.262-1.916-.118-3.207.404-4.236 2.082-.73 1.186-1.136 2.608-1.59 3.921-.15.437-.914.33-.83-.16l.021-.11c-.985-5.762 2.287-14.526 8.404-16.043" fill="#17282f"/>
  <path d="M787.768 337.412c28.68 36.032 66.77 99.148 49.65 112.075-28.147 21.25-108.251 30.92-126.603 32.382-7.919.632-21.623-51.513-16.095-57.963 5.53-6.449 89.865-7.764 90.665-12.903.454-2.914-11.294-28.919-18.254-60.51-8.027-36.425 12.554-23.238 20.637-13.081" fill="#f57a76"/>
  <path d="M708.68 420.217s-24.141-1.158-39.963-1.173c-8.826-.008-23.962 1.328-30.449 4.288-9.704 4.427-47.461 29.143-41.667 38.425 5.247 8.406 34.988-16.948 34.988-16.948s-32.273 22.928-24.096 31.886c8.178 8.958 37.972-24.155 37.972-24.155s-32.63 24.301-22.737 32.206c7.476 5.971 36.152-22.5 36.152-22.5s-27.903 21.084-20.477 27.557c8.202 7.153 36.321-17.467 36.321-17.467 21.641 13.279 37.377 10.748 48.359 7.615 2.657-.76-14.403-59.734-14.403-59.734" fill="#f57a76"/>
  <path d="M642.244 436.164c-3.888 2.556-7.841 5.116-11.49 8.01-3.649 2.893-7.198 5.915-10.56 9.135-8.246 7.897-12.174 14.132-11.89 13.774 6.73-8.483 19.63-19.042 23.28-21.936 3.639-2.887 7.135-5.958 10.776-8.848l-.116-.135" fill="#17282f"/>
  <path d="M652.93 449.145c-4.823 3.48-9.74 6.756-14.411 10.45-4.651 3.674-10.991 9.046-15.376 13.032-.338.307-.038.921.314.626 4.539-3.808 11.258-8.988 15.842-12.742 4.566-3.739 9.024-7.686 13.724-11.256l-.094-.11" fill="#17282f"/>
  <path d="M664.104 458.64c-7.643 4.937-14.368 11.283-20.815 17.663-.32.317.048.381.395.076 6.808-6.002 12.107-10.76 20.593-17.475.134-.104-.012-.37-.173-.264" fill="#17282f"/>
  <path d="M712.108 419.597c-11.016-.52-43.37-1.912-54.392-1.51-9.717.354-17.856 2.126-26.24 7.196-17.972 10.868-29.804 24.01-32.767 27.944-1.794 2.384-4.43 6.185-2.28 8.997 2.616 3.424 12.904.604 24.008-8.659.399-.333.166-.561-.242-.256-15.532 11.582-21.467 9.93-22.951 7.783-.96-1.39.113-3.684 1.097-5.432 1.424-2.532 3.596-4.816 5.615-6.87 6.964-7.097 15.292-13.525 23.557-19.029 9.508-6.33 19.468-9.718 30.896-10.194 11.291-.468 42.439 1.082 53.723.451.24-.014.213-.409-.024-.42" fill="#17282f"/>
  <path d="M605.899 471.785c.744-2.986 3.021-5.637 4.834-8.053 2.239-2.98 4.686-5.9 7.482-8.376.125-.11.318.044.201.176-2.33 2.613-4.635 5.208-6.643 8.084a48.633 48.633 0 00-2.994 4.847c-.863 1.606-1.868 3.472-1.536 5.357.636 3.614 5.184 3.71 7.912 2.852 1.774-.559 3.474-1.366 5.113-2.233 1.697-.9 4.852-3.16 6.333-4.39.174-.144.598-.066.424.086-4.164 3.663-12.08 11.299-18.164 8.133-2.43-1.267-3.63-3.804-2.962-6.483" fill="#17282f"/>
  <path d="M823.107 374.648l-45.822 19.386s-12.85-32.294-14.752-53.158c-1.9-20.867 10.646-19.412 25.519-5.436 14.873 13.975 35.055 39.208 35.055 39.208" fill="#fabb1e"/>
  <path d="M776.143 384.784c6.91-3.428 25.933-12.155 39.07-16.128l.14.313c-10.386 5.031-31.818 13.48-39.012 16.266-.134.052-.328-.386-.198-.451" fill="#17282f"/>
  <path d="M766.144 367.57l.116-.047a67.249 67.249 0 012.567 4.794 246.09 246.09 0 01-2.784-10.877c-.03-.13.156-.175.201-.05 3.723 10.606 7.707 21.14 11.204 31.825 1.19-.123 2.388-.268 3.563-.492.198-.04.274.246.077.305-1.27.383-2.525.863-3.756 1.361-.277.112-.681.106-.825-.224-2.642-6.009-4.834-12.228-6.719-18.536-.544-.948-1.079-1.904-1.55-2.88-.82-1.693-1.523-3.386-2.094-5.18" fill="#17282f"/>
  <path d="M43.752 490.753h149.275L163.263 317.62H51.64l-7.888 173.134" fill="#d4d6d3"/>
  <path d="M43.752 490.753h13.089l7.345-173.134H51.64l-7.888 173.134" fill="#999b9b"/>
  <path d="M201.01 380.612c-1.331.006-7.57.067-16.694.173-3.017-5.538-6.46-15.317-4.421-29.076.354-2.276-5.751 10.758-4.059 29.172-17.627.184-41.605.424-62.547.448-.164-7.744-.687-14.909-.687-14.909-.89 5.568-2.308 10.584-3.868 14.93-2.865.023-5.67-.005-8.362-.006.987-12.008-.525-32.967-.525-32.967-2.348 14.538-7.624 26.107-11.378 32.916-13.291-.118-22.031-.425-21.45-1.014 20.786-21.582 6.454-34.334 12.768-53.487 7.578-22.952 28.667-26.355 28.583-43.663-.031-14.081-1.088-39.644 17.863-44.874 0 0 15.768-15.656 39.488-6.642 29.346 11.126 16.248 54.394 17.999 63.247 2.488 12.65 8.69 17.173 12.977 31.615 4.379 14.617-2.924 24.196-4.028 34.058-1.058 9.856 11.679 20.091 8.342 20.08" fill="#17282f"/>
  <path d="M66.521 377.156c2.804-3.867 5.32-7.944 6.838-12.246 1.654-4.273 1.13-8.675.356-13.22-.772-4.522-1.719-9.146-2.013-13.938-.239-4.772.1-9.783 1.917-14.475 1.73-4.705 4.737-8.958 8.392-12.39 3.619-3.491 7.73-6.283 11.7-9.043 3.934-2.792 7.856-5.55 10.848-9.128 3.055-3.52 4.982-7.885 5.72-12.519.052 4.663-1.41 9.471-4.272 13.502-2.83 4.061-6.699 7.306-10.517 10.306-3.821 3.023-7.662 5.898-10.902 9.207-3.22 3.305-5.83 7.055-7.293 11.224-1.478 4.155-2 8.601-1.802 13.099.134 4.508.88 9.045 1.374 13.726.225 2.343.417 4.73.258 7.178-.147 2.452-.879 4.93-1.903 7.13-2.157 4.399-5.188 8.248-8.7 11.587" fill="#17282f"/>
  <path d="M182.003 247.961c2.145 5.364 2.824 11.16 3.516 16.847.576 5.719.858 11.456 1.074 17.17l.383 8.529c.133 2.852.43 5.529 1.104 8.162 1.308 5.29 4.281 9.924 7.655 14.643 1.629 2.393 3.284 4.883 4.613 7.577 1.333 2.687 2.38 5.53 3.043 8.447.573 2.95.928 5.839 1.03 8.797a34.857 34.857 0 01-.789 8.887c-.632 2.927-1.592 5.692-2.407 8.403a41.822 41.822 0 00-1.646 8.242c-.614 5.471 2.273 10.976 6.842 14.616-5.101-2.98-8.736-8.569-8.724-14.649.007-2.956.418-5.872 1.05-8.741.616-2.867 1.462-5.607 1.877-8.335.895-5.41.341-11.07-.87-16.403-.7-2.637-1.623-5.198-2.882-7.641-1.24-2.45-2.81-4.77-4.455-7.128-1.616-2.375-3.302-4.815-4.722-7.459-1.415-2.641-2.582-5.468-3.251-8.405-.657-2.935-.883-5.967-.919-8.832-.081-2.892-.046-5.759-.006-8.623.049-5.724.185-11.429.072-17.124-.042-5.701-.312-11.393-1.588-16.98" fill="#17282f"/>
  <path d="M144.167 351.745c9.502 41.38 28.736 93.773 43.597 104.34 11.987 8.528 74.87 23.547 78.376 23.926 8.681.877 25.825-60.45 16.827-62.94-11.339-3.14-65.23-4.816-68.296-7.965-3.182-3.291-22.794-29.849-44.998-60.615-15.324-21.26-31.402-22.422-25.506 3.254" fill="#e84e4b"/>
  <path d="M259.172 476.642c1.033.525 15.717 7.91 24.797 10.54 6.774 1.965 26.424 7.094 29.326-.15 1.986-4.938-9.214-9.314-17.066-12.585-4.136-1.723-9.233-6.054-8.013-8.712 2.13-4.648 12.779.021 19.78 4.09 13.54 7.867 31.577 22.028 39.85 15.16 3.122-2.597-.507-7.326-5.818-11.963 8.617 5.403 17.81 9.837 21.393 7.089 2.058-1.564 2.154-3.714 1.007-6.166 2.661.866 5.013.696 6.652-1.037 2.803-2.93 1.436-7.257-1.628-11.693.983-.103 1.865-.603 2.544-1.672 5.932-9.044-23.757-35.013-34.027-37.443-30.21-7.182-62.348-4.564-62.348-4.564-11.866 9.482-16.473 59.086-16.449 59.106" fill="#e84e4b"/>
  <path d="M303.595 448.832c7.114 1.113 14.118 3.776 20.15 7.756 7.659 5.054 12.739 10.97 19.166 16.93.169.157-.07.424-.239.267-3.061-2.833-15.75-13.48-19.028-15.9-6.007-4.436-12.717-7.549-20.076-8.93l.027-.123" fill="#17282f"/>
  <path d="M309.224 436.013c7.94 2.17 16.076 4.367 23.445 8.122 8.066 4.109 14.376 10.81 20.582 17.257a353.367 353.367 0 0110.918 11.861c.148.17-.078.436-.238.267a449.936 449.936 0 00-19.483-19.405c-6.296-5.892-13.317-10.402-21.383-13.475-4.542-1.73-9.209-3.112-13.87-4.487l.029-.14" fill="#17282f"/>
  <path d="M317.707 424.803c7.713 1.585 14.444 2.938 21.274 7.073 9.044 5.472 17.774 14.693 20.838 17.961 3.382 3.612 6.642 7.332 9.846 11.104.13.154-.134.384-.269.231a256.327 256.327 0 00-23.533-23.305c-3.979-3.455-8.303-6.464-13.159-8.556-4.8-2.068-9.944-3.24-15.01-4.456l.013-.052" fill="#17282f"/>
  <path d="M214.207 403.073l-57.962-2.458s-10.525-28.722-14.397-54.218c-3.872-25.497 17.85-16.342 39.367 11.115 21.516 27.46 32.992 45.561 32.992 45.561" fill="#fabb1e"/>
  <path d="M188.515 370.387c-.482-.053-.827-.175-1.16-.387-.655-.441-1.042-1.135-1.015-1.908-.012-1.174-.8-2.28-1.867-2.653-.505-.214-1.133-.187-1.573-.105-.48.105-.947.158-1.427.291.48.134.947.187 1.427.28.493.054.841.16 1.187.36.666.402 1.08 1.122 1.08 1.853-.027 1.12.706 2.294 1.774 2.694.506.227 1.107.241 1.574.147.48-.094.946-.147 1.412-.28-.466-.134-.932-.187-1.412-.292zM177.9 400.425c-.4.32-.707.493-1.105.587-.747.187-1.547-.027-2.054-.547-.788-.813-2.133-1.12-3.16-.653-.521.2-.961.627-1.226 1.013-.08.134-.174.254-.268.374l.666.026a2.78 2.78 0 011.107-.546c.775-.147 1.533.08 2.067.626l.08.067 3.64.146c.268-.2.493-.465.654-.693.266-.4.559-.772.8-1.2-.428.24-.8.534-1.201.8zm24.041-2.466l-.053.12c-.4.666-1.12 1.093-1.855 1.08-1.118-.014-2.292.72-2.693 1.773-.212.44-.253.986-.185 1.427l.625.028c.068-.415.173-.735.375-1.042a2.205 2.205 0 011.905-1.027c.893 0 1.761-.466 2.28-1.16v-.013c-.133-.386-.265-.786-.399-1.186zm-41.188-21.56c-.092-.467-.145-.947-.28-1.414-.133.467-.186.947-.292 1.414-.053.506-.148.853-.36 1.2-.401.666-1.106 1.08-1.841 1.08-1.132-.027-2.292.708-2.693 1.76-.227.506-.239 1.12-.159 1.586.093.467.159.947.292 1.414.135-.467.188-.947.28-1.414.053-.48.173-.826.401-1.173.439-.653 1.132-1.027 1.894-1.013 1.172-.014 2.292-.8 2.652-1.867.214-.507.201-1.133.106-1.573zm-3.172-26.814c-.374.307-.708.468-1.108.56-.773.147-1.532-.08-2.065-.64-.827-.813-2.175-1.04-3.187-.546-.506.2-.934.666-1.188 1.041-.265.399-.56.772-.8 1.199.428-.24.8-.532 1.202-.8.398-.32.705-.494 1.105-.587.747-.187 1.547.013 2.068.533.773.814 2.119 1.12 3.16.667.507-.2.947-.625 1.212-1.012.268-.401.56-.775.8-1.215-.425.254-.8.548-1.199.8" fill="#fff"/>
  <path d="M154.268 388.034c12.536-.32 25.112.237 37.644 1.038 3.544.228 7.087.539 10.617.93l.006.16c-6.263.027-12.526-.2-18.791-.391-6.28-.194-12.568-.436-18.843-.806-3.544-.208-7.085-.412-10.625-.693-.152-.013-.165-.235-.008-.238" fill="#17282f"/>
  <path d="M206.408 402.745l-50.16-2.133s-10.533-28.72-14.4-54.213c-1.641-10.854 1.347-15.427 6.973-14.987h.012l57.575 71.333" fill="#17282f"/>
  <path d="M193.107 490.603H51.414s30.773-118.854 59.26-152.315a36.372 36.372 0 011.953-2.179c.136-.161.249-.274.386-.409 2.453-2.568 5.02-4.499 7.61-5.884.5-.272 1-.523 1.522-.75 10.972-5.042 22.556-.862 30.916 6.293 2.658 2.272 32.688 41.342 35.346 56.245 2.294 13.152-6.588 27.281-6.588 27.281l11.288 71.718" fill="#fabb1e"/>
  <path d="M77.794 474.505c-.386.294-.72.467-1.107.548-.773.146-1.533-.068-2.067-.628-.84-.826-2.173-1.053-3.186-.56-.52.214-.947.667-1.187 1.04-.267.4-.56.774-.813 1.2.44-.24.813-.533 1.213-.8.387-.305.707-.48 1.094-.585.76-.188 1.56.025 2.066.545.787.814 2.134 1.122 3.16.653.52-.198.96-.613 1.227-1.013.267-.4.56-.773.8-1.2-.427.24-.8.534-1.2.8zm53.427-7.306c-.387.293-.72.468-1.107.546-.773.147-1.533-.066-2.067-.627-.84-.826-2.173-1.053-3.187-.56-.506.214-.946.667-1.186 1.04-.266.402-.56.774-.8 1.2.427-.24.8-.533 1.2-.798.387-.308.707-.482 1.093-.588.76-.187 1.56.027 2.067.547.787.813 2.133 1.12 3.16.653.52-.2.96-.612 1.226-1.013.267-.4.56-.774.8-1.2-.426.24-.8.533-1.2.8zm55.747-15.574a2.076 2.076 0 01-.855-.546c-.838-.814-2.186-1.04-3.198-.56-.507.213-.935.68-1.188 1.04-.266.413-.56.786-.8 1.213.428-.24.8-.533 1.201-.8.399-.32.705-.493 1.105-.6.747-.173 1.547.027 2.068.546a2.92 2.92 0 001.854.854zm-32.2-21.586c-.387.295-.72.466-1.107.546-.773.147-1.533-.067-2.068-.626-.84-.827-2.173-1.054-3.2-.56-.505.213-.932.666-1.172 1.04-.268.4-.56.773-.813 1.2.44-.24.813-.534 1.212-.8.387-.307.708-.48 1.095-.587.758-.187 1.56.027 2.065.547.787.813 2.135 1.12 3.161.653.52-.2.959-.627 1.226-1.013.268-.4.56-.772.801-1.2-.428.24-.801.533-1.2.8zm-50.148 58.28c-.386.306-.719.466-1.106.56-.773.146-1.534-.08-2.067-.64-.84-.814-2.173-1.04-3.2-.547-.506.2-.933.667-1.187 1.04-.253.4-.546.773-.8 1.2.44-.24.815-.533 1.214-.8.386-.32.706-.493 1.094-.586.76-.187 1.56.013 2.066.533.786.813 2.134 1.12 3.16.667.52-.2.96-.628 1.227-1.014.266-.398.56-.773.8-1.214-.427.24-.8.547-1.2.8zm-11.212-53.04a2.607 2.607 0 01-1.094.56c-.773.146-1.533-.08-2.067-.64-.84-.812-2.172-1.04-3.2-.547-.506.2-.933.666-1.187 1.04-.266.4-.559.773-.8 1.2.427-.24.8-.533 1.214-.8.387-.32.694-.493 1.093-.587.76-.187 1.56.013 2.067.534.787.813 2.133 1.12 3.16.666.52-.2.96-.626 1.227-1.013.266-.4.56-.774.8-1.213-.427.241-.8.546-1.213.8zm25.92-51.04c-.374.306-.708.466-1.107.546-.774.147-1.534-.065-2.067-.626-.826-.825-2.174-1.054-3.186-.56-.507.213-.934.666-1.187 1.04-.267.4-.56.773-.8 1.2.427-.24.8-.534 1.2-.8.4-.307.706-.48 1.106-.587.747-.173 1.547.027 2.067.548.774.812 2.12 1.118 3.16.652.507-.2.947-.613 1.213-1.013.267-.4.56-.774.8-1.2-.426.24-.8.533-1.2.8zm38.253-34.654c-.374.307-.708.468-1.108.56-.773.147-1.532-.08-2.065-.64-.827-.813-2.175-1.04-3.187-.546-.506.2-.934.666-1.188 1.041-.265.399-.56.772-.8 1.199.428-.24.8-.532 1.202-.8.398-.32.705-.494 1.105-.587.747-.187 1.547.013 2.068.533.773.814 2.119 1.12 3.16.667.507-.2.947-.625 1.212-1.012.268-.401.56-.775.8-1.215-.425.254-.8.548-1.199.8zM100.154 460.56c-.107-.467-.16-.934-.294-1.414-.133.48-.186.947-.28 1.414-.053.506-.16.853-.36 1.2-.413.666-1.119 1.08-1.853 1.08-1.12-.027-2.292.706-2.693 1.76-.227.506-.24 1.121-.147 1.586.093.467.147.947.28 1.414.134-.467.187-.947.294-1.414.053-.48.173-.826.386-1.173.44-.653 1.133-1.027 1.907-1.012 1.174-.015 2.28-.801 2.653-1.868.213-.507.187-1.132.107-1.573zm60.6-84.16c-.093-.467-.146-.947-.28-1.414-.134.467-.187.947-.293 1.414-.053.506-.148.853-.36 1.2-.401.666-1.106 1.08-1.841 1.08-1.132-.027-2.292.708-2.693 1.76-.227.506-.239 1.12-.159 1.586.093.467.159.947.292 1.414.135-.467.188-.947.28-1.414.053-.48.173-.826.401-1.173.439-.653 1.132-1.027 1.894-1.013 1.172-.014 2.292-.8 2.652-1.867.214-.507.201-1.133.106-1.573zM95.18 366.334c-.094-.482-.16-.947-.28-1.429-.133.482-.2.947-.294 1.429-.053.491-.146.838-.36 1.184-.32.535-.84.894-1.4 1.027-.2.4-.386.814-.573 1.227h.146c1.174-.013 2.28-.8 2.655-1.867.212-.506.185-1.133.106-1.571zm81.959 106.971c-.092-.48-.16-.946-.292-1.426-.121.48-.187.946-.281 1.426-.052.494-.147.84-.36 1.187-.4.667-1.12 1.08-1.84 1.08-1.134-.027-2.307.707-2.706 1.773-.226.494-.241 1.107-.146 1.573.093.469.146.947.28 1.416.132-.469.2-.947.292-1.416.053-.48.173-.826.386-1.173.442-.64 1.135-1.025 1.908-1.013 1.174 0 2.28-.787 2.652-1.853.215-.52.188-1.147.107-1.574zm-58.572-61.853c-.094-.467-.148-.934-.281-1.413-.133.48-.186.946-.293 1.413-.053.507-.147.853-.36 1.2-.4.666-1.107 1.08-1.84 1.08-1.133-.027-2.293.707-2.707 1.773-.227.495-.227 1.107-.146 1.574.093.466.16.946.293 1.413.133-.467.186-.947.28-1.413.054-.48.173-.827.4-1.174a2.234 2.234 0 011.893-1.013c1.173 0 2.28-.787 2.654-1.867.213-.507.186-1.133.107-1.573zm11.253-83.107c-.094-.44-.147-.893-.254-1.333h-.053c-.106.44-.16.893-.254 1.333-.053.507-.159.854-.36 1.2-.413.654-1.12 1.08-1.853 1.067-1.12-.013-2.293.721-2.693 1.775-.226.505-.24 1.118-.147 1.585.094.467.147.947.28 1.415.133-.468.187-.948.294-1.415.053-.48.173-.84.386-1.173.44-.654 1.134-1.027 1.908-1.014 1.172-.013 2.28-.8 2.652-1.866.2-.507.187-1.134.094-1.574zm48.079 72.08c-.4.32-.707.493-1.105.587-.747.187-1.547-.027-2.054-.547-.788-.813-2.133-1.12-3.16-.653-.521.2-.961.627-1.226 1.013-.268.4-.56.774-.8 1.2.425-.24.8-.533 1.198-.8a2.78 2.78 0 011.107-.546c.775-.147 1.533.08 2.067.626.826.827 2.174 1.054 3.186.56.507-.213.935-.666 1.188-1.04.266-.4.559-.772.8-1.2-.428.24-.8.534-1.201.8zm5.693 29.707a2.77 2.77 0 01-1.026-.373c-.652-.44-1.027-1.134-1.012-1.907 0-1.173-.802-2.28-1.867-2.653-.507-.199-1.133-.187-1.575-.094-.466.094-.932.147-1.413.282.481.131.947.185 1.413.28.507.065.855.158 1.2.358.667.414 1.08 1.12 1.08 1.854-.026 1.133.708 2.293 1.762 2.693.492.213 1.078.24 1.533.16zm-39.078-24.533c-.482-.067-.842-.187-1.175-.4-.652-.44-1.027-1.134-1.012-1.907-.015-1.174-.8-2.28-1.867-2.64-.508-.213-1.133-.2-1.573-.107-.468.094-.947.147-1.415.28.468.134.947.187 1.415.28.505.067.839.16 1.199.36.654.414 1.08 1.12 1.068 1.853-.015 1.134.718 2.294 1.772 2.694.508.227 1.121.24 1.588.16.465-.107.946-.16 1.412-.293-.466-.134-.947-.187-1.412-.28zm-74.294 46.88c-.48-.054-.827-.174-1.16-.387-.653-.44-1.04-1.133-1.014-1.907-.013-1.173-.8-2.28-1.866-2.653-.507-.214-1.134-.187-1.574-.107l-.84.16-.08.24c.307.067.614.107.92.175.494.053.84.145 1.187.359.667.4 1.08 1.12 1.08 1.84-.027 1.135.707 2.306 1.773 2.706.507.227 1.107.24 1.574.148.48-.094.946-.148 1.413-.28-.467-.134-.933-.2-1.413-.294zm-17.707 34.36l-.094-.027h-.012c-.054.213-.107.427-.16.627l.266-.027c.466-.107.933-.16 1.413-.294-.48-.133-.947-.2-1.413-.28zm68.573-42.72c-.467-.066-.827-.187-1.16-.399-.653-.441-1.04-1.135-1.013-1.908-.013-1.173-.8-2.28-1.867-2.64-.506-.213-1.133-.2-1.573-.107-.48.094-.947.147-1.414.28.467.134.934.187 1.414.28.494.067.84.16 1.187.36.667.414 1.093 1.12 1.08 1.854-.014 1.133.72 2.293 1.773 2.693.507.227 1.12.24 1.573.16.48-.107.947-.16 1.427-.293-.48-.134-.946-.187-1.427-.28zm27.506 46.04a2.664 2.664 0 01-1.173-.387c-.652-.438-1.027-1.133-1.012-1.907-.015-1.173-.8-2.28-1.868-2.653-.507-.212-1.132-.187-1.572-.107-.468.094-.947.16-1.413.282.466.131.945.198 1.413.292.505.053.853.146 1.199.36.666.4 1.081 1.12 1.081 1.84-.027 1.133.705 2.306 1.759 2.706l.041.014h2.253c.239-.04.467-.08.706-.147-.467-.134-.947-.2-1.414-.293zm-55.852-85.694c-.48-.053-.827-.173-1.16-.386-.654-.44-1.04-1.134-1.027-1.907 0-1.172-.786-2.28-1.853-2.654-.507-.213-1.134-.184-1.573-.106-.481.093-.947.16-1.427.28.48.133.946.2 1.427.293.492.054.84.147 1.186.36.666.4 1.08 1.12 1.08 1.84-.027 1.133.707 2.307 1.773 2.707.494.226 1.107.24 1.574.147.48-.094.946-.16 1.413-.28-.467-.134-.933-.2-1.413-.294zm63.227 54.4c-.48-.066-.828-.186-1.161-.4-.652-.44-1.039-1.131-1.012-1.906-.015-1.172-.8-2.28-1.868-2.654-.507-.2-1.132-.185-1.572-.093-.482.093-.947.147-1.414.28.467.133.932.187 1.414.28.493.067.84.16 1.185.36.667.413 1.095 1.12 1.08 1.853-.012 1.135.72 2.294 1.773 2.694.507.226 1.122.24 1.575.16.479-.105.947-.16 1.425-.294-.478-.133-.946-.186-1.425-.28zm-26.147-93.531c-.48-.055-.827-.175-1.16-.389-.654-.44-1.04-1.133-1.014-1.906-.013-1.174-.8-2.28-1.866-2.652-.507-.215-1.134-.188-1.574-.108-.48.093-.947.16-1.413.293.466.12.933.187 1.413.28.494.053.84.148 1.187.36.666.4 1.093 1.122 1.08 1.841-.013 1.132.72 2.306 1.773 2.706.507.226 1.12.241 1.574.146.48-.093.947-.146 1.426-.28-.48-.133-.946-.2-1.426-.291" fill="#fff"/>
  <path d="M160.553 413.793c-6.012.672-12.042 1.55-17.897 3.104-2.913.774-5.77 1.678-8.623 2.646-1.423.482-2.851.914-4.29 1.342-1.477.438-3.063.847-4.61.911-.14.005-.134.212.005.215 1.506.029 2.946.052 4.447-.12 1.425-.164 2.842-.481 4.231-.836 2.961-.757 5.887-1.651 8.841-2.438 5.959-1.588 11.915-3.172 17.976-4.326.279-.054.204-.528-.08-.498" fill="#17282f"/>
  <path d="M175.521 419.01c-4.953-.46-10.004-.692-14.98-.587-2.504.052-4.982.248-7.472.51-1.188.126-2.374.273-3.558.435-1.303.177-2.583.53-3.887.688-.136.016-.135.228.005.216 1.235-.112 2.494-.02 3.732-.06 1.247-.041 2.491-.092 3.736-.133 2.494-.082 4.986-.138 7.479-.244 4.99-.212 9.96-.374 14.955-.413.27-.004.246-.387-.01-.411" fill="#17282f"/>
  <path d="M107.892 341.49C84.005 367.074 27.185 463.08 45.607 480.78c18.553 17.83 120.66-6.125 149.377-19.807 8.543-4.07-23.92-57.33-33.96-58.574-8.359-1.035-51.095 18.514-52.332 16.054-1.396-2.777 8.31-20.61 18.591-57.737 11.856-42.812-8.84-30.527-19.391-19.225" fill="#e84e4b"/>
  <path d="M203.465 385.21c20.763-2.893 26.536-.447 42.763-12.194 10.648-7.707 20.14-4.216 14.065 8.032-9.936 20.03-35.94 29.388-45.889 30.035l-10.939-25.873" fill="#e84e4b"/>
  <path d="M148.316 405.197s23.328-12.954 45.15-18.225c15.089-3.645 48.803-7.915 81.06 25.35 7.65 7.89 12.957 24.558-4.22 16.21-12.2-5.93-18.145-13.376-25.87-15.533 0 0 4.233 22.002-3.97 29.358-3.666 3.288-13.882 12.027-22.806 17.698 0 0-1.757-1.613-3.693-3.972 0 0-8.312 6.146-23.96 4.657l-41.691-55.543" fill="#e84e4b"/>
  <path d="M208.423 385.792c7.214 3.764 22.372 11.99 32.429 23.037 11.17 12.267 29.384 38.908 20.243 47.062-6.703 5.978-14.551-3.583-14.551-3.583s5.207 12.598-2.028 16.676c-6.593 3.713-12.221-4.045-12.221-4.045s1.844 8.184-5.196 10.538c-8.468 2.834-10.944-14.786-22-19.329-2.483-1.02 3.324-70.356 3.324-70.356" fill="#e84e4b"/>
  <path d="M225.92 418.47c6.205 4.65 17.588 18.828 20.736 33.513.072.332-.141.565-.27.274-6.902-15.43-16.274-28.412-20.58-33.682l.114-.104" fill="#17282f"/>
  <path d="M213.865 430.106c4.942 4.563 16.02 19.7 18.7 34.69.06.335-.17.553-.288.26-6.545-16.422-14.549-29.332-18.533-34.85l.121-.1" fill="#17282f"/>
  <path d="M244.44 412.861c6.765 1.992 11.168 5.312 16.877 9.278 2.826 1.961 5.688 3.883 8.716 5.52 2.759 1.49 6.822 3.742 9.758 1.409 1.633-1.299 1.609-3.664 1.246-5.527-.408-2.094-1.209-4.107-2.45-5.845l.153-.113c1.147 1.546 2.133 3.19 2.799 5.001.602 1.64 1.073 3.545.61 5.281-.993 3.732-5.393 4.222-8.509 3.195-1.863-.615-3.628-1.604-5.325-2.577a76.82 76.82 0 01-4.802-3.019c-3.216-2.173-6.305-4.53-9.496-6.74-3.505-2.428-5.926-3.615-9.678-5.636-.127-.068-.032-.265.101-.227" fill="#17282f"/>
  <path d="M258.61 436.668c-1.75-3.859-11.233-19.928-14.307-23.645l.14-.132c5.273 4.998 13.748 18.277 15.724 22.53 1.95 4.204 4.2 9.58 4.2 14.264.001 7.071-4.688 8.41-6.423 8.756-2.068.412-4.157-.023-6.015-.985-2.068-1.07-4.069-3.293-5.454-5.124l.14-.133c2.449 2.784 6.52 5.533 10.361 5.028 1.667-.22 3.355-.978 4.372-2.36 1.197-1.623 1.292-3.758 1.13-5.694-.367-4.38-2.071-8.542-3.869-12.505" fill="#17282f"/>
  <path d="M232.565 464.796c.984.843 3.012 3.773 6.234 4.4 2.354.459 4.818.236 6.629-1.48 1.772-1.68 2.436-4.055 2.545-6.43.062-1.342-1.01-7.146-1.48-8.897-.037-.137.135-.2.178-.069 1.021 3.12 2.122 6.515 2.124 9.57.001 2.545-.803 5.274-2.708 7.049-1.971 1.837-4.859 2.485-7.399 1.536-1.26-.472-5.239-3.022-6.393-5.536l.27-.143" fill="#17282f"/>
  <path d="M205.767 454.879c1.11.655 2.072 1.637 2.996 2.526.992.955 1.95 1.95 2.885 2.962 1.868 2.022 3.484 4.336 4.89 6.698 1.429 2.4 2.743 5.072 5.073 6.74 2.281 1.632 5.414 1.891 7.738.192 1.211-.886 2.027-2.144 2.418-3.586.402-1.483.672-3.293.45-4.823-.02-.137.179-.161.19-.021.117 1.49.521 2.873.348 4.381-.154 1.33-.586 2.643-1.387 3.724-1.64 2.216-4.545 3.188-7.217 2.697-2.954-.542-5.12-2.764-6.723-5.164-1.787-2.675-3.256-5.525-5.164-8.125-1.004-1.367-1.99-2.746-3.09-4.04-1.143-1.345-2.517-2.55-3.57-3.961-.084-.112.027-.281.163-.2" fill="#17282f"/>
  <path d="M197.495 460.91c2.22-.193 7.342-1.047 11.385-2.362l.176.353c-1.508.833-4.664 1.66-5.613 1.855-1.9.386-3.98.559-5.919.36-.11-.01-.159-.196-.03-.206" fill="#17282f"/>
  <path d="M70.03 437.125c5.958-4.072 12.315-7.572 18.795-10.74 6.42-3.137 13.146-5.57 19.947-7.726 3.886-1.234 7.817-2.275 11.75-3.344.12-.034.165.152.047.186-6.861 2.06-13.573 4.73-20.146 7.564a582.952 582.952 0 00-19.47 8.824c-3.644 1.731-7.202 3.636-10.784 5.49-.167.086-.29-.151-.14-.254" fill="#17282f"/>
  <path d="M58.969 401.83l57.982-1.92s10.792-28.62 14.901-54.08c4.11-25.46-16.746-17.687-38.517 9.569-21.772 27.258-34.366 46.431-34.366 46.431" fill="#fabb1e"/>
  <path d="M127.647 363.039c-.013-1.174-.8-2.28-1.866-2.652-.507-.215-1.134-.188-1.574-.108-.48.093-.947.16-1.413.293.466.12.933.187 1.413.28.494.053.84.148 1.187.36.666.4 1.093 1.122 1.08 1.841-.013.92.467 1.865 1.213 2.386.094-.4.2-.787.293-1.187a2.112 2.112 0 01-.333-1.213zM88.7 399.519c-.507-.214-1.134-.185-1.573-.107-.481.093-.947.16-1.427.28.48.133.946.2 1.427.293.492.054.84.147 1.186.36.227.134.413.307.573.494l1.294-.04v-.014c-.347-.586-.853-1.053-1.48-1.267zm12.053-52.707c.48-.213.866-.627 1.106-.987.134-.2.28-.4.414-.586a87.928 87.928 0 00-1.52 1.573zm26.747-16.253h-.014a1.66 1.66 0 01-.44.053c-1.12-.013-2.293.721-2.693 1.775-.226.505-.24 1.118-.147 1.585.094.467.147.947.28 1.415.133-.468.187-.948.294-1.415.053-.48.173-.84.386-1.173.44-.654 1.134-1.027 1.908-1.014a2.895 2.895 0 001.785-.666 5.596 5.596 0 00-1.36-.56zm-32.32 35.775c-.094-.482-.16-.947-.28-1.429-.133.482-.2.947-.294 1.429-.053.491-.146.838-.36 1.184-.4.667-1.12 1.08-1.84 1.08-1.133-.013-2.306.72-2.706 1.774-.227.507-.24 1.12-.147 1.573.093.48.16.947.293 1.427.12-.48.187-.947.28-1.427.054-.48.174-.827.4-1.16.427-.653 1.12-1.04 1.893-1.013 1.174-.013 2.28-.8 2.655-1.867.212-.506.185-1.133.106-1.571zm24.147 17.905c-.374.306-.708.466-1.107.546-.774.147-1.534-.065-2.067-.626-.826-.825-2.174-1.054-3.186-.56-.507.213-.934.666-1.187 1.04-.267.4-.56.773-.8 1.2.427-.24.8-.534 1.2-.8.4-.307.706-.48 1.106-.587.747-.173 1.547.027 2.067.548.774.812 2.12 1.118 3.16.652.507-.2.947-.613 1.213-1.013.267-.4.56-.774.8-1.2-.426.24-.8.533-1.2.8zm-45.814 1.2c-.373.306-.72.466-1.106.546-.734.147-1.454-.04-1.974-.546-.227.32-.466.64-.68.96.8.666 2 .88 2.933.453.52-.185.96-.613 1.227-1 .267-.413.56-.787.8-1.213-.427.24-.8.533-1.2.8" fill="#fff"/>
  <path d="M114.566 399.715c.312-.003 2.352-.359 2.36-.359.145-.761 3.454-12.724 4.322-15.327 1.772-5.302 3.856-10.518 5.864-15.734.063-.166.318-.095.267.081-1.309 4.487-2.536 9.007-3.88 13.484a63.83 63.83 0 001.188-1.923c.786-1.328 1.471-2.71 2.204-4.065.066-.121.257-.032.218.097-.574 1.884-1.517 3.668-2.556 5.335-.447.718-.967 1.395-1.507 2.048-.114.372-.223.747-.339 1.119-.823 2.617-5.07 15.568-5.287 15.58-.052.004-2.147.05-2.796.055-.16.002-.22-.39-.058-.391" fill="#17282f"/>
  <path d="M68.354 390.604c12.504-.935 25.092-.995 37.649-.808 3.552.053 7.104.19 10.65.41l.013.158c-6.254.335-12.52.415-18.786.528-6.283.116-12.575.181-18.86.121-3.55-.034-7.098-.065-10.647-.173-.152-.004-.176-.225-.02-.236" fill="#17282f"/>
  <path d="M128.008 330.719c.222 2.533 9.64 20.121 20.92 21.204 3.675.345 6.457-19.626 6.457-19.626l.543-1.426 7.577-19.984-22.021-19.04-3.21-2.563s-1.711 5.605-3.774 12.605a65.01 65.01 0 00-.295.996c-.126.394-.252.763-.353 1.134a132.775 132.775 0 00-.946 3.174c-.231.811-.462 1.6-.674 2.462-.236.858-.446 1.696-.682 2.554-2.138 8.514-3.62 17.435-3.542 18.51" fill="#e84e4b"/>
  <path d="M134.5 301.89c3.557 17.278 15.724 25.86 21.428 28.98l7.577-19.983-22.021-19.04-3.21-2.563s-1.711 5.605-3.774 12.605" fill="#17282f"/>
  <path d="M190.483 269.535c10.225 36.089-10.236 46.289-18.022 48.485-7.066 1.993-31.382 7.884-45.281-26.956-13.9-34.84-.352-51.003 15.57-56.417 15.92-5.416 37.507-1.203 47.733 34.888" fill="#e84e4b"/>
  <path d="M182.707 264.303c-.878.122-1.708.089-2.588.12-.994.036-1.782.165-2.663-.382-.473-.293-.65-1.092-.408-1.577.563-1.132 1.77-1.476 2.964-1.568 1.295-.099 2.32.157 3.384.897 1.033.718.468 2.35-.69 2.51" fill="#17282f"/>
  <path d="M160.443 275.43c.856-.231 1.606-.587 2.429-.902.928-.356 1.704-.543 2.303-1.39.32-.455.17-1.258-.242-1.611-.96-.823-2.205-.67-3.34-.288-1.232.416-2.074 1.05-2.766 2.148-.67 1.064.486 2.344 1.616 2.042" fill="#17282f"/>
  <path d="M166.681 279.12l-.126.27c.777 2.435 1.257 5.354-.734 6.802l.06.132c2.603-1.155 1.927-5.023.8-7.204" fill="#17282f"/>
  <path d="M163.757 277.179c-4.036.825-2.089 8.837 1.651 8.073 3.679-.752 1.732-8.764-1.65-8.073" fill="#17282f"/>
  <path d="M162.287 277.985c-.59.624-1.08 1.59-1.903 1.878-.953.334-1.895-.326-2.728-.976l-.115.124c.35 1.541 1.323 2.972 3.024 2.801 1.552-.156 2.3-1.777 2.308-3.413.002-.303-.349-.666-.586-.414" fill="#17282f"/>
  <path d="M180.444 274.675l.244.174c.505 2.504 1.505 5.29 3.948 5.587l.012.143c-2.836.258-4.127-3.451-4.204-5.904" fill="#17282f"/>
  <path d="M182.055 271.557c3.928-1.242 6.125 6.704 2.486 7.855-3.581 1.133-5.778-6.813-2.486-7.855" fill="#17282f"/>
  <path d="M183.857 271.621c.744.248 1.576.842 2.34.683.886-.183 1.291-1.22 1.619-2.197l.147.052c.462 1.508.397 3.229-.982 3.922-1.258.635-2.596-.398-3.376-1.81-.145-.263-.048-.75.252-.65" fill="#17282f"/>
  <path d="M171.527 297.665c.714.47 1.472 1.162 2.396 1.059.886-.097 1.832-.69 2.572-1.157l.133.106c-.463 1.091-1.713 1.96-2.916 1.986-1.173.021-1.927-.848-2.404-1.832-.068-.139.115-.23.219-.162" fill="#17282f"/>
  <path d="M179.501 287.403s1.455 3.566 1.902 5.309c.041.164-5.98 3.095-9.851-.485-.159-.147.01-.376.197-.308 2.728 1.101 5.38.886 8.122.236 0-.515-2.696-6.024-2.426-6.115.934-.325 2.976-.156 4.19-.115-2.816-7.514-6.814-14.517-9.504-22.041-.091-.272.284-.455.426-.23 4.71 7.043 8.138 15.62 11.246 23.305.396.956-3.527.562-4.302.444" fill="#17282f"/>
  <path d="M160.221 238.645s2.394 5.306 1.151 9.636c-2.555 8.904-12.852 8.404-15.701 12.234-2.67 3.59-.495 9.734-2.864 13.276-3.279 4.902-8.983 4.173-9.163 7.133-.18 2.96-.549 12.35-3.987 14.113-3.438 1.764-30.238-55.761 17.556-61.844 0 0 6.094-3.829 17.03-.362 12.677 4.018 20.628 21.936 20.628 21.936s-.879-.876-2.743-2.036c-2.63-1.635-3.83-3.355-5.728-4.382-2.984-1.613-4.3-.592-7.379-2.132-4.69-2.349-8.8-7.572-8.8-7.572" fill="#17282f"/>
  <path d="M159.057 236.141c1.134 2.244 2.027 4.608 2.607 7.027.595 2.39.893 4.95.172 7.227-.743 2.221-2.659 3.972-4.736 5.152-2.12 1.21-4.57 1.865-6.835 3.245-1.1.725-2.157 1.635-2.781 2.925-.608 1.271-.713 2.622-.784 3.882-.093 2.518-.204 5.005-1.528 7.013-1.296 2.003-3.472 3.444-5.916 3.741-2.39.407-5.147.179-7.305 1.623 2.269-1.264 4.853-.82 7.382-1.048 2.592-.192 5.068-1.644 6.594-3.804 1.629-2.199 1.708-5.027 1.852-7.457.081-1.235.22-2.45.724-3.452.482-.986 1.404-1.791 2.398-2.419 2.019-1.284 4.494-2 6.735-3.31 1.123-.649 2.184-1.451 3.073-2.42.876-.945 1.696-2.094 2.007-3.407.685-2.596.227-5.228-.488-7.647a32.736 32.736 0 00-3.17-6.87" fill="#17282f"/>
  <path d="M160.33 238.15c.835 2.19 1.994 4.246 3.398 6.158 1.385 1.915 3.317 3.587 5.641 4.43 1.164.438 2.426.55 3.496.725 1.03.181 2.16.617 2.855 1.286.763.774 1.53 1.779 2.533 2.455a7.832 7.832 0 003.308 1.25c-1.089-.415-2.13-.933-2.948-1.71-.87-.728-1.448-1.661-2.225-2.621-.905-1.046-2.096-1.439-3.303-1.754-1.21-.242-2.292-.332-3.309-.737-2.072-.768-3.823-2.197-5.305-3.93-1.515-1.709-2.843-3.613-4.142-5.551" fill="#17282f"/>
  <path d="M123.645 284.677s-14.425-27.454 1.169-43.385c16.167-16.515 38.717-10.448 38.717-10.448s-24.514 1.53-34.67 14.817c-11.821 15.463-5.216 39.016-5.216 39.016" fill="#fabb1e"/>
  <path d="M159.795 271.372a10.17 10.17 0 00-2.455.72c-5.205 2.26-7.601 8.335-5.343 13.541 2.262 5.203 8.339 7.606 13.54 5.34 5.206-2.26 7.602-8.334 5.343-13.54-1.912-4.401-6.55-6.796-11.085-6.061zm3.541 21.89c-5.232.847-10.588-1.915-12.796-6.995-2.608-6.012.157-13.023 6.167-15.631 6.01-2.61 13.018.155 15.629 6.164 2.608 6.01-.156 13.02-6.165 15.63-.928.403-1.879.68-2.835.833" fill="#d4d6d3"/>
  <path d="M184.801 264.036a5.286 5.286 0 00-.589.13c-1.817.517-3.259 2.005-4.06 4.19-.83 2.275-.868 5.007-.104 7.696 1.555 5.457 5.937 9.015 9.799 7.912 3.846-1.095 5.713-6.427 4.162-11.885-.765-2.688-2.236-4.992-4.142-6.487-1.634-1.284-3.411-1.824-5.066-1.556zm4.72 21.625c-4.488.727-9.302-3.213-11-9.173-.857-3.01-.806-6.092.142-8.677.977-2.676 2.794-4.514 5.114-5.172 2.327-.668 4.831-.056 7.072 1.702 2.167 1.702 3.831 4.295 4.686 7.303 1.793 6.301-.564 12.513-5.252 13.848a7.27 7.27 0 01-.762.17" fill="#d4d6d3"/>
  <path d="M172.33 278.232l-1.315-.892c1.318-1.948 4.769-5.045 8.409-2.852l-.82 1.359c-3.257-1.968-6.152 2.209-6.275 2.385" fill="#d4d6d3"/>
  <path d="M120.192 296.101l-1.556-.316c.148-.726 1.53-7.136 4.784-8.661 3.045-1.416 26.128-5.764 27.021-5.928l.288 1.561c-6.029 1.115-24.286 4.704-26.634 5.806-2.148 1.006-3.544 5.782-3.903 7.538" fill="#d4d6d3"/>
  <path d="M133.061 289.48s-10.245-9.956-14.913-6.09c-4.667 3.87 4.576 19.378 11.139 20.483 6.562 1.106 7.705-4.949 7.705-4.949l-3.93-9.444" fill="#e84e4b"/>
  <path d="M120.908 287.772l-.001.17c4.629.915 7.653 4.463 10.03 8.289-1.583-1.343-3.489-1.88-5.327.048l.16.208c1.688-.715 3.016-.652 4.475.526 1.032.838 1.85 1.988 2.674 3.026.274.345.928.006.697-.408l-.055-.092c-.941-5.498-6.667-12.344-12.653-11.767" fill="#17282f"/>
  <path d="M109.407 338.583s25.87 18.553 40.65 16.633c14.78-1.923 13.448-16.228 13.448-16.228s-14.801-12.957-32.258-12.14c-12.621.592-21.84 11.735-21.84 11.735" fill="#e84e4b"/>
  <path d="M17.959 490.753l106.392-.323 106.392-.118 212.785-.223 212.783.222 106.392.117 106.392.325-106.392.327-106.392.117-212.783.221-212.785-.222-106.392-.119-106.392-.324" fill="#17282f"/>
  <path d="M187.173 487.404v6.65h148.259v-6.65H187.173" fill="#33535f"/>
  <path d="M187.173 487.404v6.65h74.62v-6.65h-74.62" fill="#17282f"/>
  <path d="M260.063 494.048h144.489l20.416-98.133h-144.49l-20.415 98.133" fill="#273e47"/>
  <path d="M331.315 447.172c-.559 5.32 3.3 9.63 8.618 9.63 5.318 0 10.083-4.31 10.643-9.63.559-5.317-3.3-9.63-8.619-9.63-5.318 0-10.084 4.313-10.642 9.63" fill="#fff"/>
  <path d="M697.621 487.404v6.65h-148.26v-6.65h148.26" fill="#33535f"/>
  <path d="M697.621 487.404v6.65h-74.62v-6.65h74.62" fill="#17282f"/>
  <path d="M624.732 494.048H480.244l-20.416-98.133h144.49l20.414 98.133" fill="#273e47"/>
  <path d="M553.48 447.172c.559 5.32-3.299 9.63-8.619 9.63-5.318 0-10.082-4.31-10.641-9.63-.56-5.317 3.3-9.63 8.617-9.63 5.319 0 10.083 4.313 10.643 9.63" fill="#fff"/>
  <path d="M604.608 252.47c-9.181 0-19.01 23.165-19.01 57.65 0 34.487 9.829 57.652 19.01 57.652 9.181 0 19.01-23.165 19.01-57.652 0-34.485-9.829-57.65-19.01-57.65zm0 119.302c-12.904 0-23.01-27.081-23.01-61.652 0-34.57 10.106-61.65 23.01-61.65 12.904 0 23.01 27.08 23.01 61.65s-10.106 61.652-23.01 61.652" fill="#fabb1e"/>
  <path d="M643.33 277.17c-2.707 0-5.813.317-9.253.96-11.525 2.155-25.366 7.67-38.974 15.527-13.608 7.856-25.304 17.086-32.934 25.988-7.076 8.255-9.805 15.291-7.489 19.3 2.316 4.01 9.773 5.164 20.459 3.167 11.525-2.157 25.366-7.67 38.974-15.528 13.608-7.857 25.304-17.087 32.934-25.99 7.076-8.255 9.805-15.289 7.489-19.3-1.57-2.718-5.505-4.125-11.207-4.125zm-77.323 69.886c-7.339 0-12.463-2.077-14.791-6.11-3.263-5.651-.452-14.14 7.916-23.903 7.916-9.238 19.981-18.772 33.97-26.85 13.99-8.077 28.28-13.757 40.24-15.994 12.638-2.364 21.397-.555 24.658 5.096 3.263 5.65.452 14.14-7.916 23.902-7.916 9.239-19.981 18.774-33.97 26.851-13.99 8.076-28.28 13.757-40.24 15.995-3.62.677-6.922 1.013-9.867 1.013" fill="#fabb1e"/>
  <path d="M565.887 277.17c-5.703 0-9.636 1.405-11.207 4.125-2.316 4.01.413 11.044 7.49 19.3 7.629 8.902 19.325 18.132 32.933 25.989 13.608 7.857 27.449 13.37 38.974 15.528 10.687 1.999 18.144.845 20.459-3.167 2.316-4.009-.413-11.045-7.49-19.3-7.629-8.902-19.325-18.132-32.933-25.988-13.608-7.857-27.449-13.372-38.974-15.528-3.44-.642-6.546-.96-9.252-.96zm77.322 69.886c-2.945 0-6.246-.336-9.868-1.013-11.958-2.238-26.249-7.919-40.238-15.995-13.99-8.077-26.055-17.612-33.971-26.85-8.368-9.763-11.179-18.253-7.916-23.903 3.263-5.652 12.024-7.46 24.659-5.096 11.958 2.237 26.249 7.917 40.238 15.994 13.99 8.078 26.055 17.612 33.971 26.85 8.368 9.762 11.179 18.252 7.916 23.902-2.328 4.034-7.453 6.111-14.79 6.111" fill="#fabb1e"/>
  <path d="M613.663 310.12a9.056 9.056 0 11-18.112-.002 9.056 9.056 0 0118.112.002" fill="#fabb1e"/>
  <path d="M337.748 265.485L275.84 368.028l-61.907-102.543h46.06l15.847 29.784 15.848-29.784h46.06" fill="#fabb1e"/>
  <path d="M275.84 330.527l-38.17-65.042h22.323l15.847 29.784 15.848-29.784h22.321l-38.169 65.042" fill="#f4ac12"/>
  <path d="M511.45 159.66l-15.785 89.104-52.137 16.55-52.14-16.55-15.784-89.104 67.924-33.156 67.923 33.156" fill="#fabb1e"/>
  <path d="M443.528 258.223V133.596l60.908 29.74-14.155 79.901-46.753 14.986" fill="#f4ac12"/>
  <path d="M453.245 203.23l-9.669-27.518-10.064 27.519zm-15.686-43.005h12.033l26.637 70.036H462.22l-6.51-17.461h-24.465l-6.41 17.461h-14.008l26.732-70.036" fill="#fff"/>
  <path d="M498.41 271.775l5.855 14.138-5.848 2.422-5.888-14.235-9.665 7.497v-39.832l27.884 28.168-12.339 1.842" fill="#17282f"/>
  <path d="M482.864 237.423c-.279-.668-.34-1.335-.352-2.003.01-.668.072-1.336.352-2.003.281.667.344 1.335.355 2.003-.012.668-.075 1.335-.355 2.003" fill="#17282f"/>
  <path d="M479.416 238.852c-.67-.275-1.185-.703-1.665-1.167-.466-.478-.894-.994-1.167-1.665.67.273 1.187.7 1.667 1.165.462.48.89.998 1.165 1.667" fill="#17282f"/>
  <path d="M477.987 242.301c-.668.279-1.335.342-2.003.354-.668-.011-1.335-.074-2.003-.354.668-.281 1.335-.344 2.003-.354.668.012 1.335.074 2.003.354" fill="#17282f"/>
  <path d="M479.416 245.75c-.275.67-.703 1.186-1.165 1.667-.48.464-.998.891-1.667 1.166.273-.671.701-1.188 1.167-1.667.48-.464.996-.89 1.665-1.165" fill="#17282f"/>
  <path d="M487.744 242.301c.668-.28 1.335-.342 2.003-.354.668.01 1.334.073 2.002.354-.668.28-1.334.343-2.002.354-.668-.012-1.335-.075-2.003-.354" fill="#17282f"/>
  <path d="M486.315 238.852c.273-.67.702-1.187 1.165-1.667.48-.465.996-.892 1.667-1.165-.274.67-.702 1.187-1.167 1.665-.48.464-.996.892-1.665 1.167" fill="#17282f"/>
</svg>
