<svg xmlns="http://www.w3.org/2000/svg" width="560" height="560" viewBox="0 0 560 560">
  <g id="Group_5" data-name="Group 5" transform="translate(-122 -126)">
    <g id="Group_2" data-name="Group 2">
      <g id="Group_4" data-name="Group 4">
        <path id="Path_3" data-name="Path 3" d="M280,0C434.64,0,560,125.36,560,280S434.64,560,280,560,0,434.64,0,280,125.36,0,280,0Z" transform="translate(122 126)" fill="#587388"/>
        <g id="Ellipse_1" data-name="Ellipse 1" transform="translate(154 157)" fill="#fff" stroke="#707070" stroke-width="1">
          <circle cx="248" cy="248" r="248" stroke="none"/>
          <circle cx="248" cy="248" r="247.5" fill="none"/>
        </g>
        <g id="Group_1" data-name="Group 1" transform="translate(-33.852 -38.648)">
          <path id="Path_2" data-name="Path 2" d="M22.143,11.979q-6.534-3.63-7.078-7.986t4.9-15.246q5.445-10.89,17.061-33.759,8.712-16.335,11.8-25.591t3.449-13.25q.363-3.993.363-5.082a6.3,6.3,0,0,1,.726-5.263,11.392,11.392,0,0,1,4.719-3.448,84.426,84.426,0,0,1,8.349-6.534,34.507,34.507,0,0,0,10.164-11.253q3.267-7.623,7.442-15.609t11.071-20.146q6.9-12.16,18.513-31.762,7.26-12.705,17.243-28.677t19.784-29.04a36.7,36.7,0,0,1,8.349-7.986q4.356-2.9,7.623-2.9a34.21,34.21,0,0,1,15.972,4.174,57.631,57.631,0,0,1,14.157,10.346q6.171,6.171,8.349,11.616,1.815,2.9,1.452,12.342T205.1-190.212q-1.089,13.431-2.541,28.677-1.089,14.883-3.267,35.211t-4.174,42.471q-2,22.143-3.086,42.653a292.179,292.179,0,0,0,0,35.756,26.3,26.3,0,0,1,0,6.171,39.711,39.711,0,0,0-.363,4.719q-2.178,2.178-9.438,2a51.014,51.014,0,0,1-14.157-2.359q-6.9-2.178-7.623-5.445a7.787,7.787,0,0,1-1.452-1.815q-.363-.726,0-7.079t1.089-23.414L161.9-88.209l-4.719.363q-3.267,0-11.8.726t-18.513,2q-9.982,1.271-18.332,2.541a80.6,80.6,0,0,0-11.616,2.36q-3.267,0-7.8,4.356a50.7,50.7,0,0,0-8.531,11.253,38,38,0,0,1-5.263,10.708q-3.812,5.626-3.812,7.441a15.867,15.867,0,0,0-4.174,4.356L65.7-39.567q0,2.178-3.085,10.708T54.632-9.983A142.407,142.407,0,0,1,44.649,7.986l-9.8,13.794ZM108.9-112.893l3.993-.726q3.993-.726,9.62-1.633a63.5,63.5,0,0,1,9.983-.908q8.349-2.178,13.975-3.267a68.752,68.752,0,0,1,9.257-1.271,11.739,11.739,0,0,1,5.808.907,5.955,5.955,0,0,0,2.722,2.178l1.271.363a57.4,57.4,0,0,0,1.452-7.623q1.089-6.9,2.541-17.061t2.9-21.236q1.452-11.071,2.541-20.691t1.452-15.064a69.715,69.715,0,0,0-.363-12.523l-.726-5.626q-2.178,0-8.168,7.8a233.791,233.791,0,0,0-13.794,20.691q-7.8,12.887-15.428,27.77a76.394,76.394,0,0,1-6.715,10.89q-3.086,3.993-4.9,3.993a52.249,52.249,0,0,0-3.811,5.627q-3.085,4.9-6.534,10.89t-5.808,10.89Q107.811-113.619,108.9-112.893Z" transform="translate(232 572.548)" fill="#1e3a50" stroke="#1e3a50" stroke-width="5"/>
          <path id="Path_1" data-name="Path 1" d="M188.24-108.962q-2.172,1.448-8.869,3.439t-22.625,3.8q-4.706.362-13.394.724t-18.643.724q-9.955.362-18.1.181a67.49,67.49,0,0,1-11.4-.905l-1.629,1.81a6.767,6.767,0,0,0-1.629,4.706,121.4,121.4,0,0,0-6.154,12.851q-3.62,8.507-7.783,18.643T70.228-42.9q-3.62,9.955-5.973,17.376T61.9-15.2A65.487,65.487,0,0,0,57.92-.362q-.724,6.154-2.534,7.24-1.086,5.43-6.7,5.43T40.182,9.05Q32.218,5.068,29.322-1.267t-.362-14.3q1.086-4.706,3.8-13.937t6.154-20.453q3.439-11.222,7.24-21.9a137.294,137.294,0,0,1,7.421-17.557A41.144,41.144,0,0,0,58.644-101.9a61.03,61.03,0,0,1,2.9-10.317,17.858,17.858,0,0,1,0-5.249,17.853,17.853,0,0,1,2.9-4.525,27.506,27.506,0,0,0,4.525-5.249A74.23,74.23,0,0,0,75.3-139.008q1.086-3.62,3.439-9.955t4.525-13.032q2.172-6.7,3.982-11.4a48.172,48.172,0,0,0,1.81-5.068,56.205,56.205,0,0,0,2.172-5.611q1.448-4.163,2.172-6.7,1.448-5.068,2.353-8.326t-.543-3.258a70.681,70.681,0,0,1-11.584,1.086q-4.344.724-6.335.9a22.916,22.916,0,0,0-3.439.543,14.312,14.312,0,0,1-6.516-.724,4.221,4.221,0,0,1-2.9-4.344A32.961,32.961,0,0,1,68.6-216.838q3.439-6.154,8.869-6.516a55.8,55.8,0,0,1,5.611-1.267q3.077-.543,8.507-1.991a39.688,39.688,0,0,1,12.127-.9,39.179,39.179,0,0,1,7.421,1.267,15.873,15.873,0,0,0,3.077-2.353,5.862,5.862,0,0,0,1.629-2.715,17.714,17.714,0,0,1,6.516-9.955,17.669,17.669,0,0,1,9.955-3.62,11.282,11.282,0,0,1,8.507,2.9q3.258,3.077,1.81,9.955a6.343,6.343,0,0,0,.9,1.81q.543.724,5.43-.181t17.195-3.439q6.516-.724,16.471-1.448t15.747,1.086a52.878,52.878,0,0,1,11.041-.9q4.887.181,6.7-1.267,7.6,1.448,11.041,1.991a11.335,11.335,0,0,1,5.611,2.353q1.448,1.448,1.086,2.715l-.362,1.267-.362-.181a17.988,17.988,0,0,1,2.9,1.991q2.534,1.086,2.715,4.525a32.894,32.894,0,0,1-.362,6.878,35.118,35.118,0,0,1-.9,4.525,3.967,3.967,0,0,1-3.62,3.8q-3.258.543-16.29.181a161.19,161.19,0,0,0-28.779-1.629,332.882,332.882,0,0,0-33.123,3.439,58.85,58.85,0,0,0-13.575,1.991l-5.611,1.629q-1.448,0-5.068,4.887t-6.878,14.3q-1.448,2.534-4.887,10.5t-7.059,17.195q-3.62,9.231-6.516,16.29t-3.62,7.783q5.068,1.448,15.747,1.448t23.711-.9q13.032-.905,24.616-1.991,5.43-1.086,11.222-1.81a32.826,32.826,0,0,1,7.964-.362q4.344.362,6.516,5.611a20.93,20.93,0,0,1,1.448,10.86A10.169,10.169,0,0,1,188.24-108.962Z" transform="matrix(0.978, -0.208, 0.208, 0.978, 437.948, 584.737)" fill="#1e3a50" stroke="#1e3a50" stroke-width="5"/>
        </g>
      </g>
    </g>
  </g>
</svg>
