<svg xmlns="http://www.w3.org/2000/svg" viewBox="0 0 560 560"><g data-name="Group 5"><g data-name="Group 2"><g data-name="Group 4"><path data-name="Path 3" d="M280 0c154.64 0 280 125.36 280 280S434.64 560 280 560 0 434.64 0 280 125.36 0 280 0z" fill="#587388"/><g data-name="Ellipse 1" transform="translate(32 31)" fill="#fff" stroke="#707070"><circle cx="248" cy="248" r="248" stroke="none"/><circle cx="248" cy="248" r="247.5" fill="none"/></g><g data-name="Group 1" fill="#1e3a50" stroke="#1e3a50" stroke-width="5"><path data-name="Path 2" d="M98.291 419.879q-6.534-3.63-7.078-7.986t4.9-15.246q5.445-10.89 17.061-33.759 8.712-16.335 11.8-25.591t3.449-13.25q.363-3.993.363-5.082a6.3 6.3 0 01.726-5.263 11.392 11.392 0 014.719-3.448 84.426 84.426 0 018.349-6.534 34.507 34.507 0 0010.164-11.253q3.267-7.623 7.442-15.609t11.071-20.146q6.9-12.16 18.513-31.762 7.26-12.705 17.243-28.677t19.784-29.04a36.7 36.7 0 018.349-7.986q4.356-2.9 7.623-2.9a34.21 34.21 0 0115.972 4.174 57.631 57.631 0 0114.157 10.346q6.171 6.171 8.349 11.616 1.815 2.9 1.452 12.342t-1.451 22.863q-1.089 13.431-2.541 28.677-1.089 14.883-3.267 35.211t-4.174 42.471q-2 22.143-3.086 42.653a292.179 292.179 0 000 35.756 26.3 26.3 0 010 6.171 39.711 39.711 0 00-.363 4.719q-2.178 2.178-9.438 2a51.014 51.014 0 01-14.157-2.359q-6.9-2.178-7.623-5.445a7.787 7.787 0 01-1.452-1.815q-.363-.726 0-7.079t1.089-23.414l1.812-55.543-4.719.363q-3.267 0-11.8.726t-18.513 2q-9.982 1.271-18.332 2.541a80.6 80.6 0 00-11.616 2.36q-3.267 0-7.8 4.356a50.7 50.7 0 00-8.531 11.253 38 38 0 01-5.263 10.708q-3.812 5.626-3.812 7.441a15.867 15.867 0 00-4.174 4.356l-1.64 2.538q0 2.178-3.085 10.708t-7.983 18.876a142.407 142.407 0 01-9.983 17.969l-9.8 13.794zm86.757-124.872l3.993-.726q3.993-.726 9.62-1.633a63.5 63.5 0 019.983-.908q8.349-2.178 13.975-3.267a68.752 68.752 0 019.257-1.271 11.739 11.739 0 015.808.907 5.955 5.955 0 002.722 2.178l1.271.363a57.4 57.4 0 001.452-7.623q1.089-6.9 2.541-17.061t2.9-21.236q1.452-11.071 2.541-20.691t1.452-15.064a69.715 69.715 0 00-.363-12.523l-.726-5.626q-2.178 0-8.168 7.8a233.791 233.791 0 00-13.794 20.691q-7.8 12.887-15.428 27.77a76.394 76.394 0 01-6.715 10.89q-3.086 3.993-4.9 3.993a52.249 52.249 0 00-3.811 5.627q-3.085 4.9-6.534 10.89t-5.808 10.89q-2.357 4.904-1.268 5.63z"/><path data-name="Path 1" d="M443.53 274.37q-1.822 1.868-7.958 5.208t-21.337 8.423q-4.527 1.333-12.949 3.494t-18.082 4.586q-9.66 2.424-17.664 3.941a67.481 67.481 0 01-11.337 1.487l-1.217 2.109a6.766 6.766 0 00-.614 4.94 121.385 121.385 0 00-3.346 13.85q-1.77 9.072-3.734 19.85t-3.436 21.267q-1.47 10.49-2.228 18.236t-.155 10.587a65.479 65.479 0 00-.807 15.34q.572 6.169-.972 7.607.067 5.537-5.423 6.705t-8.995-1.418q-8.617-2.238-12.767-7.831t-3.328-13.91q.083-4.829.817-14.421t1.765-21.283q1.029-11.69 2.525-22.924a137.277 137.277 0 013.606-18.714 41.139 41.139 0 002.36-13.266 61.022 61.022 0 01.69-10.693 17.856 17.856 0 01-1.09-5.134 17.85 17.85 0 011.894-5.029 27.503 27.503 0 003.334-6.074 74.22 74.22 0 003.744-12.826q.309-3.766 1.292-10.452t1.715-13.686q.73-7.004 1.523-11.977a48.166 48.166 0 00.716-5.333 56.198 56.198 0 00.958-5.94q.55-4.372.73-7.004.362-5.258.57-8.632t-1.21-3.074a70.672 70.672 0 01-11.102 3.472q-4.098 1.611-6.009 2.198a22.913 22.913 0 00-3.25 1.246 14.31 14.31 0 01-6.523.647 4.22 4.22 0 01-3.74-3.645 32.957 32.957 0 011.588-12.544q2.084-6.734 7.319-8.218a55.793 55.793 0 015.224-2.406q2.896-1.171 7.906-3.717a39.683 39.683 0 0111.673-3.402 39.174 39.174 0 017.521-.305 15.871 15.871 0 002.52-2.94 5.861 5.861 0 001.028-2.995 17.712 17.712 0 014.302-11.091 17.667 17.667 0 018.983-5.611 11.28 11.28 0 018.923 1.066q3.827 2.332 3.841 9.36a6.342 6.342 0 001.257 1.583q.682.595 5.273-1.307t16.101-6.94q6.222-2.063 15.808-4.842t15.626-2.213A52.871 52.871 0 01438 146.598q4.817-.84 6.29-2.632 7.733-.165 11.211-.35a11.334 11.334 0 015.977 1.134q1.718 1.115 1.627 2.43l-.09 1.314-.392-.101a17.986 17.986 0 013.25 1.344q2.704.535 3.597 3.86a32.89 32.89 0 011.076 6.802 35.114 35.114 0 01.061 4.613 3.967 3.967 0 01-2.75 4.47q-3.073 1.208-15.894 3.565a161.17 161.17 0 00-28.484 4.393 332.84 332.84 0 00-31.68 10.252 58.843 58.843 0 00-12.861 4.771l-5.15 2.76q-1.415.302-3.94 5.834t-3.751 15.416q-.89 2.78-2.596 11.286t-3.327 18.285q-1.62 9.78-2.984 17.287t-1.922 8.364q5.258.362 15.702-1.859t23.002-5.812q12.557-3.596 23.66-7.067 5.085-2.192 10.599-4.105a32.822 32.822 0 017.713-2.01q4.324-.55 7.54 4.132a20.927 20.927 0 013.675 10.32 10.168 10.168 0 01-3.628 9.076z" stroke-width="4.99935"/></g></g></g></g></svg>