<?xml version="1.0" encoding="UTF-8"?>
<svg width="216px" height="138px" viewBox="0 0 216 138" version="1.1" xmlns="http://www.w3.org/2000/svg" xmlns:xlink="http://www.w3.org/1999/xlink">
    <title>Group 2</title>
    <defs>
        <filter x="-7.7%" y="-11.9%" width="113.8%" height="122.0%" filterUnits="objectBoundingBox" id="filter-1">
            <feOffset dx="0" dy="2" in="SourceAlpha" result="shadowOffsetOuter1"></feOffset>
            <feGaussianBlur stdDeviation="2" in="shadowOffsetOuter1" result="shadowBlurOuter1"></feGaussianBlur>
            <feColorMatrix values="0 0 0 0 0   0 0 0 0 0   0 0 0 0 0  0 0 0 0.5 0" type="matrix" in="shadowBlurOuter1" result="shadowMatrixOuter1"></feColorMatrix>
            <feMerge>
                <feMergeNode in="shadowMatrixOuter1"></feMergeNode>
                <feMergeNode in="SourceGraphic"></feMergeNode>
            </feMerge>
        </filter>
    </defs>
    <g id="Page-1" stroke="none" stroke-width="1" fill="none" fill-rule="evenodd">
        <g id="For_Lauch--Copy" transform="translate(-71.000000, -295.000000)">
            <g id="Group-2" transform="translate(83.000000, 306.000000)" filter="url(#filter-1)">
                <g id="Group" transform="translate(103.035210, 26.008287)">
                    <path d="M90.0828223,45.6284613 C89.0714256,105.632815 1.08420515,105.624108 0.0828222912,45.6270101 C1.09278843,-14.3758921 89.0814394,-14.3671851 90.0828223,45.6284613" id="Fill-1" fill="#F8AE06"></path>
                    <path d="M84.8050784,46.3105743 C84.8050784,67.8494438 67.3443633,85.3109897 45.8054938,85.3109897 C24.2657935,85.3109897 6.80507843,67.8494438 6.80507843,46.3105743 C6.80507843,24.7717048 24.2657935,7.31098968 45.8054938,7.31098968 C67.3443633,7.31098968 84.8050784,24.7717048 84.8050784,46.3105743" id="Fill-1" fill="#FFFFFF" transform="translate(45.805078, 46.310990) rotate(-4.000000) translate(-45.805078, -46.310990) "></path>
                    <path d="M34.8050784,63.5684631 C44.8909976,69.0491066 63.7008229,61.3227524 62.7719117,44.3109897" id="Stroke-19" stroke="#000000" stroke-width="3" transform="translate(48.805078, 54.810990) rotate(-4.000000) translate(-48.805078, -54.810990) "></path>
                    <path d="M84.8050784,46.3105743 C84.8050784,67.8494438 67.3443633,85.3109897 45.8054938,85.3109897 C24.2657935,85.3109897 6.80507843,67.8494438 6.80507843,46.3105743 C6.80507843,24.7717048 24.2657935,7.31098968 45.8054938,7.31098968 C67.3443633,7.31098968 84.8050784,24.7717048 84.8050784,46.3105743 Z" id="Stroke-3" stroke="#1D1D1B" stroke-width="3" transform="translate(45.805078, 46.310990) rotate(-4.000000) translate(-45.805078, -46.310990) "></path>
                </g>
                <g id="Group-21" transform="translate(67.000000, 56.500000) rotate(-4.000000) translate(-67.000000, -56.500000) translate(4.000000, 5.000000)">
                    <path d="M101.870342,64.2131279 C100.994731,115.550621 24.7384763,115.542302 23.870342,64.2114641 C24.7459531,12.8756351 101.002208,12.8839543 101.870342,64.2131279" id="Fill-5" fill="#FFFFFF"></path>
                    <path d="M101.870342,64.2131279 C100.994731,115.550621 24.7384763,115.542302 23.870342,64.2114641 C24.7459531,12.8756351 101.002208,12.8839543 101.870342,64.2131279 Z" id="Stroke-7" stroke="#000000" stroke-width="3"></path>
                    <path d="M125.104099,28.8249741 L72.8378372,1.74648752 L82.2871143,31.6302834 C76.1364696,28.2663985 68.4226545,26.4141485 61.104099,27.0904062 C61.010768,48.7099349 80.1652506,66.4268929 102.086436,64.6193952 C102.052145,54.8153156 98.228274,45.8466132 91.9513378,39.1180146 L125.104099,28.8249741 Z" id="Fill-9" fill="#FFFFFF"></path>
                    <path d="M125.173855,27.8274101 L72.9075937,0.748923466 L82.3568708,30.6327194 C76.2062261,27.2688344 68.492411,25.4165844 61.1738555,26.0928421 C61.0805245,47.7123708 80.2350071,65.4293288 102.156193,63.6218312 C102.121902,53.8177516 98.2980305,44.8490492 92.0210943,38.1204505 L125.173855,27.8274101 Z" id="Stroke-11" stroke="#000000" stroke-width="3" fill="#F8AE06"></path>
                    <path d="M1.96879416,28.6991236 L54.235056,1.62111177 L44.7857788,31.5044696 C50.9364235,28.1413694 58.6502386,26.2882664 65.9687942,26.964533 C66.0621252,48.585173 46.9076425,66.3015338 24.9856207,64.4940125 C25.0207481,54.6898048 28.8437828,45.7209852 35.1215553,38.9922985 L1.96879416,28.6991236 Z" id="Fill-13" fill="#FFFFFF"></path>
                    <path d="M0.97123011,28.6293671 L53.2374919,1.55135529 L43.7882148,31.4347131 C49.9388595,28.0716129 57.6526746,26.2185099 64.9712301,26.8947765 C65.0645611,48.5154165 45.9100785,66.2317774 23.9880567,64.424256 C24.0231841,54.6200483 27.8462188,45.6512287 34.1239913,38.9225421 L0.97123011,28.6293671 Z" id="Stroke-15" stroke="#000000" stroke-width="3" fill="#F8AE06"></path>
                    <path d="M45.6122895,77.7388293 C50.8686036,87.5814096 70.7885918,91.7191988 79.6122895,77.7388293" id="Stroke-17" stroke="#000000" stroke-width="3"></path>
                </g>
            </g>
        </g>
    </g>
</svg>