<svg xmlns="http://www.w3.org/2000/svg" viewBox="0 0 216 138">
  <defs>
    <filter x="-7.7%" y="-11.9%" width="113.8%" height="122%" filterUnits="objectBoundingBox" id="a">
      <feOffset dy="2" in="SourceAlpha" result="shadowOffsetOuter1"/>
      <feGaussianBlur stdDeviation="2" in="shadowOffsetOuter1" result="shadowBlurOuter1"/>
      <feColorMatrix values="0 0 0 0 0 0 0 0 0 0 0 0 0 0 0 0 0 0 0.5 0" in="shadowBlurOuter1" result="shadowMatrixOuter1"/>
      <feMerge>
        <feMergeNode in="shadowMatrixOuter1"/>
        <feMergeNode in="SourceGraphic"/>
      </feMerge>
    </filter>
  </defs>
  <g transform="translate(12 11)" filter="url(#a)" fill="none" fill-rule="evenodd">
    <path d="M193.118 71.637c-1.011 60.004-88.999 59.995-90-.002 1.01-60.003 88.999-59.994 90 .002" fill="#F8AE06"/>
    <path d="M187.745 69.598c1.503 21.487-14.697 40.124-36.184 41.626-21.487 1.503-40.123-14.698-41.626-36.185-1.502-21.486 14.698-40.122 36.185-41.625 21.487-1.502 40.123 14.698 41.625 36.184" fill="#FFF"/>
    <path d="M138.485 90.532c10.444 4.764 28.669-4.256 26.556-21.161" stroke="#000" stroke-width="3"/>
    <path d="M187.745 69.598c1.503 21.487-14.697 40.124-36.184 41.626-21.487 1.503-40.123-14.698-41.626-36.185-1.502-21.486 14.698-40.122 36.185-41.625 21.487-1.502 40.123 14.698 41.625 36.184z" stroke="#1D1D1B" stroke-width="3"/>
    <g>
      <path d="M106.662 66.47c2.708 51.274-73.363 56.585-77.81 5.44-2.707-51.272 73.364-56.583 77.81-5.44" fill="#FFF"/>
      <path d="M106.662 66.47c2.708 51.274-73.363 56.585-77.81 5.44-2.707-51.272 73.364-56.583 77.81-5.44z" stroke="#000" stroke-width="3"/>
      <path d="M127.371 29.548L73.343 6.181l11.511 29.152c-6.37-2.926-14.194-4.236-21.448-3.05 1.415 21.572 21.759 37.91 43.5 34.578-.718-9.778-5.158-18.458-11.889-24.732l32.354-12.581z" fill="#FFF"/>
      <path id="pony-right" d="M127.371 28.548L73.343 5.181l11.511 29.152c-6.37-2.926-14.194-4.236-21.448-3.05 1.415 21.572 21.759 37.91 43.5 34.578-.718-9.778-5.158-18.458-11.889-24.732l32.354-12.581z" stroke="#000" stroke-width="3" fill="#F8AE06"/>
      <path d="M4.527 38.012l50.25-30.658-7.342 30.47c5.901-3.784 13.467-6.17 20.815-6.007 1.601 21.562-16.27 40.571-38.265 40.297-.65-9.783 2.539-18.996 8.332-26.147l-33.79-7.955z" fill="#FFF"/>
      <path id="pony-left" d="M3.527 38.012l50.25-30.658-7.342 30.47c5.901-3.784 13.467-6.17 20.815-6.007 1.601 21.562-16.27 40.571-38.265 40.297-.65-9.783 2.539-18.996 8.332-26.147l-33.79-7.955z" stroke="#000" stroke-width="3" fill="#F8AE06"/>
      <path d="M51.485 83.888c5.93 9.452 26.09 12.19 33.917-2.372" stroke="#000" stroke-width="3"/>
    </g>
  </g>
</svg>